<?xml version="1.0" standalone="no"?>
<!DOCTYPE svg PUBLIC "-//W3C//DTD SVG 20010904//EN"
 "http://www.w3.org/TR/2001/REC-SVG-20010904/DTD/svg10.dtd">
<svg version="1.0" xmlns="http://www.w3.org/2000/svg"
 width="1400.000000pt" height="1200.000000pt" viewBox="0 0 1400.000000 1200.000000"
 preserveAspectRatio="xMidYMid meet">

<g transform="translate(0.000000,1200.000000) scale(0.100000,-0.100000)"
fill="#000000" stroke="none">
<path d="M0 6000 l0 -6000 7000 0 7000 0 0 6000 0 6000 -7000 0 -7000 0 0
-6000z m4625 4720 c-3 -5 -12 -10 -18 -10 -7 0 -6 4 3 10 19 12 23 12 15 0z
m377 -78 c16 -18 7 -14 -32 13 -73 51 -84 63 -33 35 24 -13 53 -35 65 -48z
m175 -324 c-3 -8 -6 -5 -6 6 -1 11 2 17 5 13 3 -3 4 -12 1 -19z m-1057 -478
c0 -5 -6 -10 -13 -10 -8 0 -22 -9 -32 -20 -10 -11 -24 -20 -32 -20 -7 0 -13
-4 -13 -9 0 -5 -20 -19 -45 -31 -25 -12 -45 -26 -45 -31 0 -5 -4 -9 -10 -9
-18 0 -10 21 18 48 60 57 106 87 122 77 5 -3 11 -1 15 5 8 13 35 13 35 0z
m-200 -74 c0 -2 -8 -10 -17 -17 -16 -13 -17 -12 -4 4 13 16 21 21 21 13z
m1601 -26 c43 -12 87 -54 68 -65 -7 -5 -10 -4 -6 2 10 15 -16 33 -76 54 -56
19 -46 25 14 9z m99 -98 c0 -15 -2 -15 -10 -2 -13 20 -13 33 0 25 6 -3 10 -14
10 -23z m-1180 -351 c0 -12 -20 -25 -27 -18 -7 7 6 27 18 27 5 0 9 -4 9 -9z
m1444 -87 c3 -8 2 -12 -4 -9 -6 3 -10 10 -10 16 0 14 7 11 14 -7z m56 12 c0
-2 -8 -10 -17 -17 -16 -13 -17 -12 -4 4 13 16 21 21 21 13z m231 -284 c10 -48
13 -52 32 -46 25 8 77 8 85 0 3 -3 -11 -6 -31 -6 -19 0 -47 -4 -60 -9 -22 -9
-26 -6 -36 17 -5 15 -13 50 -16 77 -8 65 10 42 26 -33z m374 -237 c29 7 29 7
10 -8 -31 -25 -51 -20 -74 17 -30 47 -26 57 7 18 24 -29 32 -32 57 -27z
m-3685 41 c0 -17 -209 -171 -300 -221 -36 -19 12 17 113 85 59 41 125 88 145
106 39 35 42 37 42 30z m3833 -43 c-7 -2 -21 -2 -30 0 -10 3 -4 5 12 5 17 0
24 -2 18 -5z m201 -142 c-6 -6 -53 40 -65 62 -6 10 8 1 30 -20 21 -21 37 -40
35 -42z m4339 62 c-22 -3 -33 -10 -33 -20 0 -12 -3 -13 -15 -3 -8 7 -38 16
-67 20 -45 6 -38 7 47 7 55 0 85 -2 68 -4z m-205 -17 c-7 -8 -17 -11 -22 -6
-5 5 -15 6 -22 3 -8 -3 -14 0 -14 6 0 6 16 11 35 11 30 0 34 -2 23 -14z m369
-10 c3 -2 1 -11 -4 -19 -6 -12 -13 -9 -35 13 l-28 29 31 -9 c18 -5 34 -11 36
-14z m-529 -24 c3 -9 -2 -10 -21 -3 -14 5 -35 7 -48 4 -19 -4 -21 -3 -9 6 19
14 72 10 78 -7z m-155 -12 c-16 -7 -20 -14 -15 -32 5 -22 5 -22 -13 -5 -10 10
-26 16 -36 14 -11 -3 -19 -1 -19 3 0 4 17 12 38 18 46 12 74 14 45 2z m-3338
-17 c-11 -2 -32 -8 -47 -13 -16 -5 -28 -7 -28 -4 0 9 44 23 70 22 20 0 21 -1
5 -5z m3195 -19 c-25 -8 -59 -21 -77 -29 -17 -8 -40 -15 -51 -15 -28 0 -53
-10 -47 -20 2 -4 -7 -5 -22 -2 -23 4 -25 2 -21 -16 4 -13 0 -26 -9 -34 -14
-11 -15 -10 -9 10 7 20 4 22 -26 22 -51 1 -20 14 138 59 130 37 223 56 124 25z
m1010 -42 c35 -36 76 -65 104 -76 26 -10 53 -28 62 -39 42 -59 145 -236 198
-338 l58 -115 0 -127 c-1 -70 -3 -131 -6 -135 -2 -4 -7 -45 -10 -90 -6 -85
-18 -117 -75 -207 l-29 -46 -11 32 c-11 33 -7 56 5 25 3 -9 10 -16 15 -16 5 0
4 12 -1 26 -14 36 -12 44 7 37 12 -5 15 -2 10 10 -4 9 -10 24 -14 34 -4 11 -3
14 5 9 7 -4 12 -13 12 -21 0 -8 5 -17 10 -20 13 -8 2 44 -13 63 -6 7 -6 12 0
12 6 0 15 -10 22 -22 10 -20 11 -19 6 15 -4 22 -2 37 4 37 7 0 7 9 1 26 -13
33 -12 43 1 24 8 -12 10 -9 6 13 -2 15 0 27 6 27 5 0 7 10 4 22 -4 12 -1 29 6
37 9 11 9 15 0 18 -9 3 -9 10 3 28 12 18 13 28 5 44 -6 11 -11 29 -11 41 0 17
-4 21 -17 15 -14 -5 -15 -4 -6 6 9 9 10 16 1 26 -8 11 -7 12 6 7 9 -3 16 -1
16 5 0 6 -3 11 -8 11 -4 0 -13 9 -19 20 -11 17 -10 18 5 13 12 -4 11 0 -6 17
-13 12 -21 28 -18 35 2 7 -4 21 -15 31 -10 9 -19 25 -19 34 0 9 -3 20 -7 24
-5 4 -9 12 -9 17 -3 22 -5 23 -15 9 -8 -12 -9 -8 -6 15 4 23 -1 34 -21 52 -15
13 -31 23 -35 23 -5 0 -7 10 -6 23 2 12 -6 42 -18 65 -18 41 -21 43 -36 27
-16 -15 -19 -15 -41 2 -14 10 -24 23 -24 28 6 39 -20 83 -88 151 -41 41 -70
74 -64 74 7 0 38 -26 70 -58z m-4635 10 c-8 -8 -25 10 -25 26 0 13 2 13 14 -4
8 -10 13 -21 11 -22z m615 7 c25 -10 38 -18 29 -18 -9 -1 -41 10 -70 24 -59
27 -32 24 41 -6z m-360 -19 c-8 -5 -19 -10 -25 -10 -5 0 -3 5 5 10 8 5 20 10
25 10 6 0 3 -5 -5 -10z m3330 0 c0 -5 -4 -10 -10 -10 -5 0 -10 5 -10 10 0 6 5
10 10 10 6 0 10 -4 10 -10z m-360 -87 c0 -7 -4 -13 -9 -13 -5 0 -13 6 -19 13
-8 10 -6 13 9 13 10 0 19 -6 19 -13z m-1955 -13 c-3 -5 -26 -10 -51 -10 -28 0
-43 4 -39 10 3 6 26 10 51 10 28 0 43 -4 39 -10z m-344 -28 c-7 -2 -18 1 -23
6 -8 8 -4 9 13 5 13 -4 18 -8 10 -11z m2099 8 c0 -5 -5 -10 -11 -10 -5 0 -7 5
-4 10 3 6 8 10 11 10 2 0 4 -4 4 -10z m10 -30 c0 -5 -4 -10 -10 -10 -5 0 -10
5 -10 10 0 6 5 10 10 10 6 0 10 -4 10 -10z m-1372 -31 c23 -10 42 -21 42 -24
0 -3 -17 2 -37 11 -21 9 -48 19 -61 21 -12 3 -25 10 -28 15 -7 12 20 4 84 -23z
m161 17 c-2 -2 -20 -6 -39 -10 -25 -4 -31 -3 -20 4 14 9 69 15 59 6z m96 -10
c47 -20 45 -29 -2 -12 -21 8 -45 17 -53 19 -11 4 -11 6 3 6 10 1 33 -6 52 -13z
m693 -6 c-9 -6 -44 -13 -77 -16 -34 -4 -61 -12 -61 -17 0 -7 -4 -7 -12 1 -7 7
-21 13 -32 13 -28 2 119 26 164 27 27 1 31 -1 18 -8z m126 2 c6 -9 -83 -7 -92
2 -3 3 15 6 41 6 25 0 48 -4 51 -8z m1996 -52 c0 -22 -4 -40 -10 -40 -11 0
-14 63 -3 73 11 12 13 8 13 -33z m-2734 -2 l29 -33 -32 29 c-31 28 -38 36 -30
36 2 0 16 -15 33 -32z m379 22 c-11 -5 -41 -9 -67 -9 -27 -1 -48 -6 -51 -13
-3 -10 -7 -10 -17 -1 -10 9 -4 13 26 18 22 3 46 8 54 10 8 1 29 3 45 3 25 1
27 -1 10 -8z m-202 -28 c-10 -10 -19 -15 -21 -12 -1 4 -16 4 -32 2 -17 -2 -30
-2 -30 2 0 6 56 24 83 25 16 1 16 0 0 -17z m2436 -583 c-60 -115 -227 -362
-342 -506 -175 -221 -448 -486 -600 -584 -71 -46 -166 -79 -226 -79 -25 1 -75
7 -111 15 -85 19 -154 19 -218 0 l-52 -16 87 -58 c291 -195 463 -523 463 -883
0 -369 -171 -696 -462 -885 -203 -132 -482 -181 -743 -132 -378 70 -685 379
-771 774 -22 99 -29 283 -15 394 7 51 10 95 8 97 -4 5 -226 -72 -235 -81 -15
-14 -13 -251 3 -624 9 -218 15 -423 13 -456 -3 -53 -5 -60 -28 -66 -33 -9
-498 -9 -530 0 l-25 7 0 149 c0 83 4 245 8 360 7 178 6 213 -7 230 -14 19 -27
20 -263 22 l-248 2 -105 -37 -105 -37 3 -235 c1 -129 5 -278 8 -330 8 -145 29
-135 -289 -135 -220 0 -267 3 -282 15 -17 14 -18 31 -11 247 l6 233 -57 -26
c-32 -14 -100 -42 -151 -61 -90 -35 -95 -38 -129 -92 -101 -158 -321 -305
-539 -360 -143 -36 -138 -36 -167 -1 -15 17 -31 39 -36 48 -10 18 -5 19 -296
-101 -199 -83 -686 -273 -915 -357 -124 -45 -274 -102 -335 -125 -60 -24 -186
-71 -280 -105 -93 -34 -188 -70 -210 -80 -22 -10 -67 -30 -100 -45 -33 -15
-105 -42 -160 -60 -55 -18 -138 -47 -185 -65 -47 -18 -95 -34 -108 -35 -13 -2
-28 -8 -35 -13 -7 -5 -23 -12 -37 -15 -14 -3 -86 -23 -160 -45 -182 -54 -285
-77 -409 -93 -100 -12 -103 -13 -70 -25 34 -12 36 -15 25 -44 -8 -21 82 -113
140 -143 68 -34 344 -86 456 -87 35 0 115 24 290 86 134 47 383 134 553 194
1022 357 1199 422 1350 498 l150 76 4065 4 c3688 4 4069 3 4103 -11 72 -31 67
97 67 -1722 0 -1805 4 -1692 -62 -1719 -49 -20 -12046 -20 -12096 0 -66 27
-62 -86 -62 1719 0 1755 -2 1687 48 1714 14 7 138 11 366 11 394 0 362 -9 327
91 -10 30 -18 56 -19 59 0 3 -3 47 -7 98 -4 51 -11 95 -16 98 -12 7 -1 34 32
75 l28 36 -28 34 c-58 71 -121 172 -169 271 -53 107 -119 294 -108 305 6 7 30
-12 32 -25 4 -34 160 -340 193 -378 10 -11 26 -35 37 -52 10 -18 22 -32 26
-32 4 0 8 -6 8 -13 0 -8 9 -24 19 -36 11 -13 22 -28 24 -34 3 -9 10 -9 26 1
25 15 31 15 31 2 0 -5 -7 -10 -16 -10 -9 0 -32 -17 -50 -37 -33 -36 -35 -41
-33 -108 1 -38 4 -74 7 -79 3 -5 6 -30 7 -55 2 -49 11 -90 21 -100 14 -14 97
-2 215 33 70 20 142 36 160 36 18 0 64 9 103 21 39 12 89 26 111 32 22 6 56
19 75 28 47 25 183 76 223 84 30 7 89 24 217 65 30 10 102 32 160 50 58 18
129 43 158 56 29 13 59 24 67 24 9 0 23 4 33 10 9 5 85 27 168 49 82 22 229
66 325 97 270 86 490 152 658 195 84 22 162 44 174 50 11 7 43 13 70 15 62 4
121 23 277 91 189 83 353 147 478 190 l113 38 -5 29 c-12 57 -50 116 -162 247
-124 146 -167 220 -189 326 -57 267 65 483 352 627 143 72 359 125 387 95 7
-8 37 -68 66 -134 29 -66 70 -154 90 -196 21 -41 35 -80 32 -87 -5 -6 -40 -11
-92 -10 -170 0 -270 -70 -270 -190 0 -69 30 -122 171 -302 67 -85 130 -172
141 -193 14 -29 24 -37 36 -32 9 3 80 23 156 43 l139 36 -6 156 c-21 519 -30
829 -24 843 5 14 40 15 292 16 241 0 287 -3 292 -15 3 -8 -2 -130 -11 -272
-21 -332 -21 -395 1 -413 13 -11 73 -14 292 -14 l276 0 88 29 87 28 0 48 c0
26 -3 88 -6 137 -7 98 -7 98 -69 73 -22 -9 -136 -31 -176 -35 -14 -1 -32 -6
-40 -11 -8 -4 -30 -9 -49 -10 -19 0 -53 -4 -75 -8 -39 -8 -39 -8 -17 9 12 9
27 13 32 10 6 -3 25 -2 43 4 17 6 57 17 87 25 94 25 174 47 190 53 22 9 28 10
50 12 20 1 20 5 14 149 -4 82 -4 161 0 175 l6 26 272 0 c176 0 277 -4 285 -11
8 -7 13 -37 13 -85 0 -56 3 -74 13 -71 6 3 59 19 117 37 58 18 114 36 125 41
48 19 142 50 170 54 17 3 41 8 55 12 16 4 10 -2 -15 -16 -64 -35 -230 -94
-409 -145 -26 -7 -51 -17 -55 -20 -3 -4 -7 -65 -9 -136 l-4 -129 79 28 c351
130 351 130 433 212 194 194 408 280 702 280 154 0 110 -13 403 116 72 31 184
80 250 109 129 57 365 176 510 258 263 148 599 403 795 601 41 42 76 76 78 76
2 0 -16 -36 -39 -81z m-4624 1 c3 -5 1 -10 -4 -10 -6 0 -11 5 -11 10 0 6 2 10
4 10 3 0 8 -4 11 -10z m875 -20 c0 -5 -2 -10 -4 -10 -3 0 -8 5 -11 10 -3 6 -1
10 4 10 6 0 11 -4 11 -10z m-883 -66 c-3 -3 -12 -4 -19 -1 -8 3 -5 6 6 6 11 1
17 -2 13 -5z m270 -226 c-3 -8 -6 -5 -6 6 -1 11 2 17 5 13 3 -3 4 -12 1 -19z
m4673 -50 c0 -26 -17 -14 -22 17 -4 20 -3 23 8 14 8 -6 14 -20 14 -31z
m-10522 -193 c0 -14 -5 -22 -10 -19 -6 4 -7 -2 -3 -15 7 -24 -12 -30 -21 -7
-4 11 22 63 32 66 1 0 2 -11 2 -25z m-21 -100 c-1 -19 -5 -35 -9 -35 -4 0 -8
16 -8 35 0 19 4 35 9 35 5 0 9 -16 8 -35z m10333 -62 c-12 -21 -42 -60 -67
-88 l-46 -50 33 45 c18 25 46 64 63 88 38 52 45 54 17 5z m1539 -508 c37 -82
80 -175 95 -205 40 -76 31 -85 -70 -81 -120 4 -206 -33 -253 -110 -50 -82 -17
-164 154 -379 166 -208 208 -300 207 -455 0 -163 -59 -301 -182 -425 -143
-146 -311 -234 -533 -280 -53 -11 -61 -10 -79 6 -51 47 -228 372 -228 420 0
25 -5 22 139 59 210 53 302 140 289 273 -7 75 -37 125 -163 272 -125 147 -168
221 -190 327 -37 173 3 329 115 455 61 68 187 155 290 199 98 42 244 79 298
76 l44 -2 67 -150z m-4369 111 c0 -3 -4 -8 -10 -11 -5 -3 -10 -1 -10 4 0 6 5
11 10 11 6 0 10 -2 10 -4z m125 -16 c-3 -5 -14 -10 -23 -10 -15 0 -15 2 -2 10
20 13 33 13 25 0z m3107 0 c58 -16 53 3 93 -401 8 -83 5 -84 -167 -70 -79 7
-249 15 -379 18 -232 6 -236 6 -257 -15 -19 -19 -22 -34 -22 -94 0 -88 14
-144 40 -158 25 -13 300 -13 533 1 134 9 191 9 199 1 7 -7 6 -55 -6 -164 -9
-84 -16 -187 -16 -229 0 -105 1 -105 -158 -90 -70 6 -227 11 -348 11 -185 0
-224 -2 -234 -15 -18 -21 -9 -217 11 -241 45 -55 230 -67 591 -39 227 18 231
18 245 -1 17 -23 12 -116 -18 -294 -34 -208 -38 -213 -169 -200 -47 5 -338 9
-646 9 -530 1 -563 2 -585 19 l-22 19 12 264 c7 145 16 354 21 464 9 187 3
594 -16 1044 l-7 164 344 -5 c280 -4 751 1 894 10 17 1 47 -3 67 -8z m-3162
-14 c0 -3 -4 -8 -10 -11 -5 -3 -10 -1 -10 4 0 6 5 11 10 11 6 0 10 -2 10 -4z
m-7585 -216 c3 -5 1 -10 -4 -10 -6 0 -11 5 -11 10 0 6 2 10 4 10 3 0 8 -4 11
-10z m-1 -115 c0 -41 -4 -78 -7 -82 -9 -8 -9 120 -1 141 3 9 7 16 8 16 0 0 1
-34 0 -75z m3 -142 c-3 -10 -5 -2 -5 17 0 19 2 27 5 18 2 -10 2 -26 0 -35z
m10 -100 c-3 -10 -5 -2 -5 17 0 19 2 27 5 18 2 -10 2 -26 0 -35z m37 -203 c11
-82 38 -235 43 -242 2 -5 0 -8 -6 -8 -6 0 -15 17 -20 38 -14 53 -40 234 -46
322 l-5 75 14 -70 c8 -38 16 -90 20 -115z m3474 -292 c-2 -6 -10 -14 -16 -16
-7 -2 -10 2 -6 12 7 18 28 22 22 4z m-3298 -349 c0 -5 -4 -9 -10 -9 -5 0 -10
7 -10 16 0 8 5 12 10 9 6 -3 10 -10 10 -16z m2090 -23 c0 -3 -4 -8 -10 -11 -5
-3 -10 -1 -10 4 0 6 5 11 10 11 6 0 10 -2 10 -4z m270 -1096 c0 -5 -5 -10 -11
-10 -5 0 -7 5 -4 10 3 6 8 10 11 10 2 0 4 -4 4 -10z m-70 -30 c0 -5 -5 -10
-11 -10 -5 0 -7 5 -4 10 3 6 8 10 11 10 2 0 4 -4 4 -10z"/>
<path d="M9481 6039 c-165 -32 -312 -177 -365 -358 -20 -70 -21 -218 -1 -296
36 -137 128 -249 252 -308 65 -30 74 -32 188 -32 115 0 123 1 185 32 163 80
268 247 278 438 12 260 -136 472 -365 520 -75 16 -107 17 -172 4z"/>
<path d="M2210 3080 c0 -5 7 -10 15 -10 8 0 15 5 15 10 0 6 -7 10 -15 10 -8 0
-15 -4 -15 -10z"/>
<path d="M3186 3055 c-6 -31 -9 -34 -27 -25 -26 14 -54 5 -79 -27 -22 -29 -27
-92 -8 -111 15 -15 65 -16 74 -1 4 8 9 7 15 -2 13 -21 17 -9 39 95 24 117 23
106 6 106 -8 0 -17 -15 -20 -35z m-28 -47 c22 -22 14 -75 -14 -97 -14 -11 -32
-17 -39 -15 -31 12 -29 70 3 107 18 20 33 22 50 5z"/>
<path d="M3425 3078 c-7 -22 -35 -169 -35 -184 0 -8 4 -14 9 -14 4 0 16 37 25
83 10 45 20 92 23 105 5 23 -14 32 -22 10z"/>
<path d="M4000 3080 c0 -5 5 -10 10 -10 6 0 10 5 10 10 0 6 -4 10 -10 10 -5 0
-10 -4 -10 -10z"/>
<path d="M4072 3078 c-7 -7 -12 -18 -12 -25 0 -8 -7 -16 -16 -20 -12 -4 -13
-8 -3 -13 9 -6 9 -18 0 -53 -17 -68 -15 -87 10 -87 17 0 19 3 10 14 -15 18 3
106 26 124 12 8 13 12 4 12 -10 0 -12 9 -7 30 6 34 5 35 -12 18z"/>
<path d="M4822 3078 c-7 -7 -12 -18 -12 -25 0 -8 -7 -16 -16 -20 -12 -4 -13
-8 -3 -13 9 -6 9 -18 0 -53 -17 -68 -15 -87 10 -87 17 0 19 3 10 14 -15 18 3
106 26 124 12 8 13 12 4 12 -10 0 -12 9 -7 30 6 34 5 35 -12 18z"/>
<path d="M6022 3078 c-7 -7 -12 -18 -12 -25 0 -8 -7 -16 -16 -20 -12 -4 -13
-8 -3 -13 9 -6 9 -18 0 -53 -17 -68 -15 -87 10 -87 17 0 19 3 10 14 -15 18 3
106 26 124 12 8 13 12 4 12 -10 0 -12 9 -7 30 6 34 5 35 -12 18z"/>
<path d="M6272 3078 c-7 -7 -12 -18 -12 -25 0 -8 -7 -16 -16 -20 -12 -4 -13
-8 -3 -13 9 -6 9 -18 0 -53 -17 -68 -15 -87 10 -87 17 0 19 3 10 14 -15 18 3
106 26 124 12 8 13 12 4 12 -10 0 -12 9 -7 30 6 34 5 35 -12 18z"/>
<path d="M6956 3050 c-6 -40 -6 -40 -30 -24 -19 12 -29 13 -45 5 -31 -17 -51
-52 -51 -91 0 -43 15 -60 50 -60 14 0 31 5 38 12 9 9 12 9 12 0 0 -7 4 -12 8
-12 5 0 16 44 25 98 20 112 20 112 8 112 -5 0 -11 -18 -15 -40z m-28 -42 c20
-20 14 -65 -12 -95 -20 -23 -28 -26 -43 -17 -27 17 -29 78 -4 103 24 24 42 26
59 9z"/>
<path d="M7030 3080 c0 -5 5 -10 10 -10 6 0 10 5 10 10 0 6 -4 10 -10 10 -5 0
-10 -4 -10 -10z"/>
<path d="M7265 3080 c-3 -5 -2 -10 4 -10 5 0 13 5 16 10 3 6 2 10 -4 10 -5 0
-13 -4 -16 -10z"/>
<path d="M7630 3080 c0 -5 5 -10 10 -10 6 0 10 5 10 10 0 6 -4 10 -10 10 -5 0
-10 -4 -10 -10z"/>
<path d="M8266 3008 c-10 -46 -20 -93 -23 -105 -3 -13 -1 -23 4 -23 6 0 18 37
27 83 10 45 20 92 23 105 3 12 1 22 -4 22 -5 0 -17 -37 -27 -82z"/>
<path d="M8350 3080 c0 -5 5 -10 10 -10 6 0 10 5 10 10 0 6 -4 10 -10 10 -5 0
-10 -4 -10 -10z"/>
<path d="M9075 3049 c-5 -30 -10 -38 -18 -30 -19 19 -62 12 -85 -12 -25 -26
-30 -95 -10 -115 16 -16 51 -15 66 0 10 10 15 10 21 -1 11 -17 14 -6 35 108
19 98 18 91 7 91 -5 0 -12 -18 -16 -41z m-27 -41 c34 -34 -12 -128 -55 -114
-26 8 -35 40 -22 74 20 51 50 67 77 40z"/>
<path d="M9322 3037 c-6 -29 -12 -64 -12 -78 0 -27 -32 -69 -53 -69 -37 0 -50
67 -21 109 13 18 23 22 46 17 18 -3 27 -2 23 4 -3 6 -19 10 -35 10 -41 0 -72
-42 -68 -93 4 -50 25 -66 68 -50 16 6 30 7 30 2 0 -5 3 -9 8 -9 4 0 15 44 25
98 20 110 20 112 9 112 -4 0 -13 -24 -20 -53z"/>
<path d="M9820 3080 c0 -5 5 -10 10 -10 6 0 10 5 10 10 0 6 -4 10 -10 10 -5 0
-10 -4 -10 -10z"/>
<path d="M10716 3078 c-3 -7 -7 -26 -11 -42 -5 -22 -9 -26 -18 -17 -17 17 -62
13 -81 -8 -26 -29 -32 -93 -11 -114 19 -19 60 -23 71 -6 4 8 9 7 15 -2 4 -7
10 -11 12 -9 10 11 43 210 35 210 -5 0 -10 -6 -12 -12z m-26 -78 c26 -49 -36
-132 -75 -100 -18 15 -20 53 -4 83 23 42 61 50 79 17z"/>
<path d="M11885 3080 c-3 -5 -2 -10 4 -10 5 0 13 5 16 10 3 6 2 10 -4 10 -5 0
-13 -4 -16 -10z"/>
<path d="M12270 3080 c0 -5 5 -10 10 -10 6 0 10 5 10 10 0 6 -4 10 -10 10 -5
0 -10 -4 -10 -10z"/>
<path d="M12422 3037 c-6 -29 -12 -64 -12 -78 0 -27 -32 -69 -53 -69 -37 0
-50 67 -21 109 13 18 23 22 46 17 18 -3 27 -2 23 4 -3 6 -19 10 -35 10 -41 0
-72 -42 -68 -93 4 -50 25 -66 68 -50 16 6 30 7 30 2 0 -5 3 -9 8 -9 4 0 15 44
25 98 20 110 20 112 9 112 -4 0 -13 -24 -20 -53z"/>
<path d="M12500 3080 c0 -5 5 -10 10 -10 6 0 10 5 10 10 0 6 -4 10 -10 10 -5
0 -10 -4 -10 -10z"/>
<path d="M12665 3058 c-10 -46 -13 -49 -35 -36 -33 21 -73 -1 -89 -49 -13 -37
-13 -44 2 -67 18 -27 60 -36 73 -15 4 8 9 7 15 -2 13 -21 18 -8 34 77 8 43 17
89 20 102 3 12 1 22 -4 22 -5 0 -13 -15 -16 -32z m-25 -53 c16 -20 5 -77 -19
-100 -37 -33 -81 5 -65 58 15 51 58 73 84 42z"/>
<path d="M8414 3055 c-3 -14 -9 -25 -13 -25 -3 0 -7 -21 -8 -48 -2 -26 -4 -58
-5 -72 -2 -20 2 -26 22 -28 23 -3 24 -3 7 10 -17 12 -17 19 -6 63 6 28 19 56
27 63 11 8 12 12 3 12 -9 0 -12 9 -9 25 3 14 1 25 -3 25 -5 0 -11 -11 -15 -25z"/>
<path d="M10864 3055 c-3 -14 -9 -25 -13 -25 -3 0 -7 -21 -8 -48 -2 -26 -4
-58 -5 -72 -2 -20 2 -26 22 -28 23 -3 24 -3 7 10 -17 12 -17 19 -6 63 6 28 19
56 27 63 11 8 12 12 3 12 -9 0 -12 9 -9 25 3 14 1 25 -3 25 -5 0 -11 -11 -15
-25z"/>
<path d="M13070 3060 c0 -11 -7 -23 -16 -27 -9 -3 -12 -8 -5 -12 6 -4 7 -20 1
-46 -16 -69 -13 -95 12 -95 19 0 20 1 5 13 -14 11 -14 18 -3 66 8 37 18 57 32
62 18 7 18 8 0 8 -14 1 -17 6 -12 26 4 14 2 25 -4 25 -5 0 -10 -9 -10 -20z"/>
<path d="M1460 3027 c-46 -23 -66 -100 -34 -131 25 -26 79 -20 103 10 29 37
28 98 -1 118 -27 19 -36 19 -68 3z m58 -19 c20 -20 14 -67 -13 -93 -28 -29
-38 -31 -59 -9 -22 21 -20 56 5 88 22 28 48 33 67 14z"/>
<path d="M1642 3024 c-12 -8 -22 -10 -22 -5 0 6 -4 11 -9 11 -4 0 -15 -34 -23
-75 -12 -58 -12 -75 -3 -75 7 0 16 19 19 44 8 50 41 100 62 92 8 -3 14 1 14 9
0 19 -10 19 -38 -1z"/>
<path d="M1720 3027 c-15 -7 -31 -29 -39 -54 -13 -37 -13 -44 2 -67 23 -34 77
-36 109 -4 29 29 7 36 -28 9 -30 -24 -64 -14 -64 19 0 18 7 20 61 20 l62 0 -7
33 c-10 53 -46 69 -96 44z m58 -19 c24 -24 13 -38 -28 -38 -43 0 -49 9 -24 34
19 19 36 20 52 4z"/>
<path d="M1861 3003 c-19 -71 -24 -123 -12 -123 6 0 13 12 17 28 14 64 27 93
46 103 31 17 40 -1 29 -52 -13 -55 -14 -79 -2 -79 10 0 12 6 31 77 11 43 44
73 61 56 5 -5 4 -32 -2 -66 -11 -53 -8 -79 7 -64 11 11 33 118 27 133 -8 22
-42 27 -68 10 -14 -9 -25 -12 -25 -7 0 16 -38 23 -60 11 -13 -7 -20 -7 -20 0
0 25 -20 6 -29 -27z"/>
<path d="M2201 3018 c-4 -13 -11 -41 -15 -63 -4 -22 -9 -48 -12 -57 -3 -11 0
-18 9 -18 10 0 19 24 29 75 14 72 8 112 -11 63z"/>
<path d="M2265 3028 c-2 -7 -13 -57 -23 -110 -16 -80 -17 -98 -6 -98 8 0 16
16 20 39 6 39 7 40 30 24 22 -14 26 -14 50 2 32 21 56 77 48 110 -9 35 -39 50
-70 36 -15 -6 -24 -7 -24 -1 0 14 -20 12 -25 -2z m83 -20 c30 -30 0 -108 -42
-108 -28 0 -39 30 -25 68 19 50 43 64 67 40z"/>
<path d="M2440 3020 c-27 -27 -13 -54 36 -75 43 -18 40 -39 -4 -43 -22 -2 -34
2 -38 12 -6 16 -34 23 -34 9 0 -17 17 -32 44 -42 39 -15 80 5 84 41 3 23 -3
30 -37 48 -23 11 -41 25 -41 30 0 18 41 22 59 6 22 -20 31 -20 31 -1 0 35 -69
46 -100 15z"/>
<path d="M2580 3003 c-23 -85 -24 -110 -1 -122 14 -8 27 -9 39 -2 10 6 28 8
39 5 18 -5 22 3 35 71 8 41 11 78 7 81 -9 5 -29 -37 -29 -62 0 -8 -7 -28 -15
-44 -11 -22 -23 -30 -42 -30 -28 0 -28 4 -7 108 9 46 -12 41 -26 -5z"/>
<path d="M2752 3019 c-5 -13 -12 -42 -16 -64 -4 -22 -9 -48 -12 -57 -3 -12 0
-18 10 -18 10 0 17 15 22 45 7 49 36 95 61 95 13 0 15 -9 9 -54 -3 -30 -9 -61
-12 -70 -4 -10 -1 -16 9 -16 11 0 18 14 23 45 7 49 36 95 61 95 13 0 15 -9 9
-54 -3 -30 -9 -61 -12 -70 -4 -10 -1 -16 8 -16 9 0 19 19 26 51 16 67 15 84
-4 100 -13 11 -21 11 -44 -3 -25 -14 -29 -14 -44 0 -12 12 -20 13 -39 5 -18
-8 -28 -8 -35 -1 -8 8 -14 4 -20 -13z"/>
<path d="M3275 3028 c-33 -19 -44 -41 -45 -83 0 -51 13 -65 61 -65 48 0 79 36
79 91 0 57 -47 85 -95 57z m59 -24 c42 -41 -14 -131 -64 -104 -26 14 -26 60 1
94 23 30 41 33 63 10z"/>
<path d="M3489 3011 c-33 -34 -40 -89 -13 -115 25 -26 79 -20 103 10 29 37 28
98 -1 118 -33 23 -56 20 -89 -13z m79 -3 c20 -20 14 -67 -13 -93 -29 -29 -38
-31 -60 -8 -22 21 -13 71 16 96 25 20 40 22 57 5z"/>
<path d="M3692 3024 c-12 -8 -22 -10 -22 -5 0 6 -4 11 -9 11 -4 0 -15 -34 -23
-75 -12 -58 -12 -75 -3 -75 7 0 16 19 19 44 8 50 41 100 62 92 8 -3 14 1 14 9
0 19 -10 19 -38 -1z"/>
<path d="M3853 3030 c-39 -16 -30 -56 17 -80 43 -22 47 -29 28 -48 -19 -19
-45 -14 -62 10 -18 25 -36 16 -20 -10 13 -21 79 -28 100 -11 25 21 16 48 -27
74 -22 15 -39 31 -36 38 6 19 37 20 58 1 10 -9 22 -14 27 -10 8 9 -34 46 -52
45 -6 0 -21 -4 -33 -9z"/>
<path d="M4244 3030 c-24 -10 -39 -28 -30 -37 3 -4 15 2 25 11 26 23 66 18 66
-9 0 -16 -9 -21 -42 -26 -47 -6 -73 -23 -73 -49 0 -28 23 -40 77 -37 l51 2 6
64 c4 35 3 68 -1 72 -14 13 -57 18 -79 9z m56 -85 c0 -19 -35 -55 -54 -55 -7
0 -19 7 -26 15 -16 20 1 42 38 48 15 2 30 5 35 6 4 0 7 -6 7 -14z"/>
<path d="M4446 3033 c-4 -4 -19 -7 -34 -8 -24 0 -28 -5 -38 -50 -15 -63 -17
-95 -5 -95 6 0 13 21 17 46 8 55 43 101 68 91 13 -5 16 -14 13 -30 -15 -57
-19 -107 -9 -107 5 0 13 17 16 38 10 58 26 91 48 98 31 10 40 -8 29 -57 -13
-54 -14 -79 -3 -79 9 0 32 88 32 120 0 28 -31 41 -61 26 -19 -10 -28 -10 -45
1 -11 7 -24 10 -28 6z"/>
<path d="M4660 3027 c-46 -23 -66 -100 -34 -131 8 -9 28 -16 44 -16 29 0 80
33 68 45 -4 4 -19 -2 -34 -14 -32 -25 -38 -26 -58 -5 -32 32 -20 44 44 44 56
0 60 2 60 23 0 48 -46 76 -90 54z m58 -19 c25 -25 13 -38 -33 -38 -49 0 -53 4
-28 32 19 21 44 23 61 6z"/>
<path d="M5084 3030 c-12 -5 -29 -19 -38 -32 -19 -26 -21 -89 -4 -106 19 -19
66 -14 89 9 29 29 16 35 -20 8 -25 -18 -33 -20 -46 -9 -22 18 -19 76 5 100 26
26 45 25 63 -1 11 -15 17 -17 23 -8 4 7 -2 19 -16 31 -25 20 -26 20 -56 8z"/>
<path d="M5234 3030 c-52 -20 -75 -118 -35 -140 54 -28 109 2 117 65 8 60 -31
95 -82 75z m54 -22 c20 -20 14 -67 -13 -93 -40 -41 -75 -27 -75 30 0 54 56 95
88 63z"/>
<path d="M5417 3025 c-19 -10 -27 -10 -30 -2 -2 7 -7 9 -10 6 -9 -7 -37 -143
-31 -149 8 -8 23 23 30 63 7 44 37 80 62 75 19 -4 21 -37 9 -100 -5 -22 -4
-38 1 -38 11 0 32 76 32 114 0 34 -29 49 -63 31z"/>
<path d="M5553 3030 c-39 -16 -30 -56 17 -80 43 -22 47 -29 28 -48 -19 -19
-45 -14 -62 10 -18 25 -36 16 -20 -10 13 -21 80 -28 100 -11 25 20 12 52 -29
74 -39 21 -46 47 -14 53 10 2 27 -4 38 -14 22 -20 40 -10 18 10 -20 20 -51 26
-76 16z"/>
<path d="M5710 3027 c-46 -23 -66 -100 -34 -131 8 -9 28 -16 44 -16 29 0 80
33 68 45 -4 4 -19 -2 -34 -14 -32 -25 -38 -26 -58 -5 -32 32 -20 44 44 44 56
0 60 2 60 23 0 48 -46 76 -90 54z m58 -19 c25 -25 13 -38 -33 -38 -49 0 -53 4
-28 32 19 21 44 23 61 6z"/>
<path d="M5884 3030 c-12 -5 -29 -19 -38 -32 -19 -26 -21 -89 -4 -106 19 -19
66 -14 89 9 29 29 16 35 -20 8 -25 -18 -33 -20 -46 -9 -22 18 -19 76 5 100 26
26 45 25 63 -1 11 -15 17 -17 23 -8 4 7 -2 19 -16 31 -25 20 -26 20 -56 8z"/>
<path d="M6110 3027 c-46 -23 -66 -100 -34 -131 8 -9 28 -16 44 -16 29 0 80
33 68 45 -4 4 -19 -2 -34 -14 -32 -25 -38 -26 -58 -5 -32 32 -20 44 44 44 56
0 60 2 60 23 0 48 -46 76 -90 54z m58 -19 c25 -25 13 -38 -33 -38 -49 0 -53 4
-28 32 19 21 44 23 61 6z"/>
<path d="M6544 3024 c-17 -14 -17 -15 -1 -10 10 3 23 6 28 6 5 0 9 5 9 10 0
14 -13 12 -36 -6z"/>
<path d="M6714 3030 c-24 -10 -39 -28 -30 -37 3 -4 15 2 25 11 26 23 66 18 66
-9 0 -16 -9 -21 -42 -26 -47 -6 -73 -23 -73 -49 0 -28 23 -40 77 -37 l51 2 6
64 c4 35 3 68 -1 72 -14 13 -57 18 -79 9z m56 -85 c0 -19 -35 -55 -54 -55 -7
0 -19 7 -26 15 -16 20 1 42 38 48 15 2 30 5 35 6 4 0 7 -6 7 -14z"/>
<path d="M3972 2966 c-14 -76 -15 -86 -3 -86 4 0 14 27 20 61 7 34 15 67 18
75 3 8 -1 14 -9 14 -10 0 -18 -20 -26 -64z"/>
<path d="M6330 2977 c-7 -29 -11 -62 -9 -72 5 -24 44 -32 65 -14 13 10 17 10
24 -1 13 -21 16 -13 33 68 17 83 1 97 -19 17 -15 -56 -44 -91 -69 -81 -17 6
-17 40 2 114 3 12 1 22 -5 22 -6 0 -16 -24 -22 -53z"/>
<path d="M6488 2955 c-8 -41 -11 -75 -6 -75 5 0 10 6 12 13 2 6 11 34 19 61
15 47 13 76 -3 76 -4 0 -14 -34 -22 -75z"/>
<path d="M7007 2958 c-15 -68 -15 -89 -1 -75 5 5 33 119 34 140 0 4 -4 7 -8 7
-5 0 -16 -33 -25 -72z"/>
<path d="M7085 3005 c-12 -50 -35 -167 -35 -176 0 -5 4 -9 9 -9 5 0 11 19 15
42 5 31 10 38 18 30 21 -21 65 -14 87 14 24 30 28 95 8 112 -7 6 -32 10 -55 9
-34 -1 -44 -5 -47 -22z m83 3 c25 -25 5 -102 -30 -114 -46 -14 -64 52 -27 100
22 28 39 32 57 14z"/>
<path d="M7239 2955 c-18 -87 -2 -99 17 -14 15 63 17 89 6 89 -4 0 -14 -34
-23 -75z"/>
<path d="M7320 3015 c-18 -21 -6 -43 35 -62 37 -18 47 -46 19 -57 -22 -9 -51
1 -58 19 -6 16 -26 21 -26 6 0 -20 33 -41 64 -41 66 0 79 59 19 88 -21 9 -38
24 -38 32 0 22 46 25 62 4 15 -20 28 -13 20 11 -8 20 -80 20 -97 0z"/>
<path d="M7470 3008 c-23 -25 -28 -96 -8 -116 26 -26 98 -4 98 29 0 14 -8 11
-30 -11 -33 -33 -63 -19 -63 28 0 62 52 104 83 67 18 -22 32 -18 20 5 -15 28
-73 27 -100 -2z"/>
<path d="M7608 2958 c-15 -69 -16 -89 -2 -75 5 5 33 119 34 140 0 4 -4 7 -8 7
-5 0 -16 -33 -24 -72z"/>
<path d="M7676 2961 c-19 -81 -19 -81 -8 -81 5 0 14 24 21 54 13 58 39 90 68
84 20 -4 22 -25 9 -95 -5 -27 -4 -43 2 -43 12 0 37 125 27 139 -9 15 -58 14
-73 -1 -9 -9 -12 -9 -12 0 0 7 -4 12 -9 12 -5 0 -17 -31 -25 -69z"/>
<path d="M7856 3011 c-27 -30 -31 -82 -8 -111 18 -23 23 -24 52 -13 29 11 31
11 24 -10 -14 -47 -49 -62 -74 -32 -18 22 -32 18 -20 -5 14 -26 71 -27 92 -2
14 16 48 144 48 181 0 14 -2 14 -10 1 -7 -12 -12 -12 -22 -2 -18 18 -63 15
-82 -7z m70 1 c30 -20 19 -93 -16 -112 -24 -13 -26 -13 -44 6 -43 43 11 139
60 106z"/>
<path d="M8100 2998 c-25 -41 -25 -80 -2 -101 31 -29 102 -15 102 19 0 11 -7
10 -30 -8 -35 -25 -63 -17 -68 21 -3 19 1 21 57 21 55 0 61 2 61 21 0 41 -18
59 -60 59 -35 0 -43 -5 -60 -32z m88 10 c25 -25 13 -38 -33 -38 -48 0 -55 9
-29 34 18 19 45 21 62 4z"/>
<path d="M8326 2961 c-19 -81 -19 -81 -8 -81 5 0 14 26 21 58 7 31 15 65 17
75 3 9 1 17 -5 17 -5 0 -17 -31 -25 -69z"/>
<path d="M8662 3018 c-23 -23 -13 -47 25 -65 47 -22 55 -50 17 -59 -22 -6 -31
-2 -46 16 -21 25 -38 19 -22 -8 13 -21 65 -27 94 -12 32 17 22 51 -23 75 -22
12 -36 26 -35 35 4 21 42 24 62 4 20 -20 34 -11 16 11 -15 18 -71 20 -88 3z"/>
<path d="M8800 2998 c-25 -41 -25 -80 -2 -101 31 -29 102 -15 102 19 0 11 -7
10 -30 -8 -35 -25 -63 -17 -68 21 -3 19 1 21 57 21 55 0 61 2 61 21 0 41 -18
59 -60 59 -35 0 -43 -5 -60 -32z m88 10 c25 -25 13 -38 -33 -38 -48 0 -55 9
-29 34 18 19 45 21 62 4z"/>
<path d="M9391 3011 c-28 -28 -36 -77 -17 -106 23 -35 77 -35 105 1 23 30 28
93 9 112 -19 19 -76 14 -97 -7z m75 1 c19 -13 23 -41 13 -72 -27 -75 -117 -54
-93 23 14 46 51 69 80 49z"/>
<path d="M9641 3011 c-47 -47 -30 -131 27 -131 32 0 75 27 66 41 -4 6 -14 2
-25 -10 -24 -25 -42 -27 -63 -5 -32 32 -20 44 44 44 59 0 60 0 60 28 0 15 -5
33 -12 40 -19 19 -76 14 -97 -7z m73 3 c9 -3 16 -15 16 -25 0 -16 -8 -19 -45
-19 -49 0 -53 4 -28 32 17 19 31 22 57 12z"/>
<path d="M9805 3018 c-19 -60 -28 -158 -12 -137 10 12 32 149 25 149 -5 0 -10
-6 -13 -12z"/>
<path d="M9876 3018 c-23 -76 -26 -112 -12 -127 13 -12 22 -13 46 -4 21 8 30
8 33 -1 2 -6 8 -8 12 -4 10 9 37 140 30 146 -8 8 -10 2 -26 -58 -10 -40 -21
-58 -41 -69 -43 -24 -52 -6 -35 68 8 33 10 61 5 61 -5 0 -10 -6 -12 -12z"/>
<path d="M10039 3014 c-17 -21 -2 -45 39 -63 40 -18 43 -48 5 -57 -20 -5 -30
-2 -44 14 -20 26 -29 28 -29 7 0 -32 86 -49 110 -20 19 23 7 49 -33 70 -22 12
-36 26 -35 35 5 22 49 25 65 4 7 -10 16 -15 19 -11 4 4 1 13 -6 22 -16 20 -74
19 -91 -1z"/>
<path d="M10185 3008 c-27 -122 -28 -128 -17 -128 5 0 14 23 21 52 13 59 35
88 64 88 18 0 19 -5 14 -45 -4 -25 -9 -56 -13 -70 -3 -14 -2 -25 3 -25 15 0
43 123 31 138 -13 15 -50 16 -66 0 -9 -9 -12 -9 -12 0 0 21 -19 13 -25 -10z"/>
<path d="M10316 3022 c-3 -5 6 -7 21 -4 26 5 26 4 20 -42 -4 -25 -9 -57 -13
-71 -4 -15 -2 -25 4 -25 12 0 35 100 30 128 -3 18 -52 30 -62 14z"/>
<path d="M10441 3011 c-28 -28 -36 -77 -17 -106 23 -35 77 -35 105 1 23 30 28
93 9 112 -19 19 -76 14 -97 -7z m75 1 c19 -13 23 -41 13 -72 -27 -75 -117 -54
-93 23 14 46 51 69 80 49z"/>
<path d="M10941 3004 c-23 -30 -28 -93 -9 -112 19 -19 73 -14 93 8 25 27 12
37 -14 11 -12 -12 -27 -21 -35 -21 -14 0 -46 36 -46 52 0 5 27 8 60 8 59 0 60
0 60 28 0 37 -17 52 -56 52 -23 0 -39 -8 -53 -26z m89 -5 c15 -28 10 -31 -44
-27 -46 3 -46 3 -31 26 20 28 61 29 75 1z"/>
<path d="M11106 3020 c-6 -19 -26 -118 -26 -130 0 -21 20 -9 20 13 1 12 7 40
15 61 9 25 11 46 5 55 -8 14 -9 14 -14 1z"/>
<path d="M11146 3022 c-3 -5 5 -8 17 -8 24 1 27 -15 13 -91 -12 -67 8 -51 22
17 10 49 18 63 38 72 38 18 48 0 35 -62 -13 -62 -14 -70 -2 -70 11 0 35 125
26 139 -8 14 -41 14 -65 1 -13 -7 -21 -7 -25 0 -7 12 -52 13 -59 2z"/>
<path d="M11354 3015 c-11 -36 -35 -178 -31 -188 5 -13 11 0 21 45 6 24 9 26
25 17 57 -36 126 56 90 122 -8 16 -19 19 -56 17 -25 -2 -47 -7 -49 -13z m84
-7 c25 -25 5 -102 -30 -114 -27 -8 -48 13 -48 50 0 58 46 96 78 64z"/>
<path d="M11521 3004 c-40 -51 -20 -124 34 -124 37 0 55 10 70 41 32 61 10
109 -50 109 -24 0 -39 -7 -54 -26z m87 4 c18 -18 14 -62 -9 -92 -36 -45 -79
-29 -79 31 0 55 56 93 88 61z"/>
<path d="M11677 2958 c-15 -68 -15 -89 -1 -75 3 3 10 25 15 49 13 57 34 88 62
89 17 1 18 2 4 6 -10 3 -24 -1 -32 -7 -11 -9 -15 -9 -15 -1 0 6 -4 11 -8 11
-5 0 -16 -33 -25 -72z"/>
<path d="M11861 2959 c-7 -38 -10 -73 -7 -76 7 -7 12 7 25 75 13 64 13 72 3
72 -5 0 -14 -32 -21 -71z"/>
<path d="M11928 2958 c-9 -40 -14 -75 -11 -78 7 -8 21 21 27 62 7 44 36 78 67
78 20 0 21 -4 16 -47 -4 -27 -9 -58 -13 -70 -4 -13 -2 -23 4 -23 10 0 32 82
32 121 0 26 -26 35 -61 22 -16 -7 -29 -7 -29 -2 0 5 -4 9 -8 9 -5 0 -16 -33
-24 -72z"/>
<path d="M12106 3011 c-10 -11 -20 -37 -23 -58 -6 -46 14 -73 53 -73 24 0 71
37 60 48 -4 3 -16 -5 -27 -17 -40 -43 -79 -9 -63 56 7 28 16 40 37 48 24 8 31
6 43 -9 8 -11 17 -17 20 -13 4 4 1 13 -6 22 -18 21 -73 19 -94 -4z"/>
<path d="M12255 3018 c-19 -60 -28 -158 -12 -137 10 12 32 149 25 149 -5 0
-10 -6 -13 -12z"/>
<path d="M12478 2958 c-15 -69 -16 -89 -2 -75 5 5 33 119 34 140 0 4 -4 7 -8
7 -5 0 -16 -33 -24 -72z"/>
<path d="M12726 3018 c-23 -76 -26 -112 -12 -127 13 -12 22 -13 46 -4 21 8 30
8 33 -1 2 -6 8 -8 12 -4 10 9 37 140 30 146 -8 8 -10 2 -26 -58 -10 -40 -21
-58 -41 -69 -43 -24 -52 -6 -35 68 8 33 10 61 5 61 -5 0 -10 -6 -12 -12z"/>
<path d="M12878 2958 c-9 -40 -14 -75 -11 -78 7 -8 21 21 27 62 7 44 36 78 67
78 20 0 21 -4 16 -47 -4 -27 -9 -58 -13 -70 -4 -13 -2 -23 4 -23 10 0 32 82
32 121 0 26 -26 35 -61 22 -16 -7 -29 -7 -29 -2 0 5 -4 9 -8 9 -5 0 -16 -33
-24 -72z"/>
<path d="M4869 2898 c-4 -15 -3 -55 2 -52 10 6 17 54 8 54 -5 0 -9 -1 -10 -2z"/>
<path d="M8470 2890 c0 -5 5 -10 10 -10 6 0 10 5 10 10 0 6 -4 10 -10 10 -5 0
-10 -4 -10 -10z"/>
<path d="M1622 2718 c-7 -7 -12 -18 -12 -25 0 -8 -7 -16 -16 -20 -12 -4 -13
-8 -3 -13 9 -6 9 -18 0 -53 -17 -68 -15 -87 10 -87 17 0 19 3 10 14 -15 18 3
106 26 124 12 8 13 12 4 12 -10 0 -12 9 -7 30 6 34 5 35 -12 18z"/>
<path d="M1775 2718 c-7 -22 -35 -169 -35 -184 0 -8 4 -14 8 -14 5 0 16 37 26
83 10 45 20 92 23 105 5 23 -14 32 -22 10z"/>
<path d="M1994 2625 c-19 -94 -18 -126 2 -94 4 8 9 8 17 0 36 -36 102 16 102
81 0 47 -26 72 -64 63 -22 -6 -23 -4 -18 24 5 22 3 31 -6 31 -8 0 -20 -37 -33
-105z m84 23 c25 -25 10 -99 -24 -112 -43 -16 -62 66 -24 104 23 23 31 25 48
8z"/>
<path d="M2872 2718 c-7 -7 -12 -18 -12 -25 0 -8 -7 -16 -16 -20 -11 -4 -12
-8 -4 -13 8 -5 8 -19 1 -51 -16 -70 -14 -89 10 -89 17 0 19 3 10 14 -15 18 3
106 26 124 12 8 13 12 4 12 -10 0 -12 9 -7 30 6 34 5 35 -12 18z"/>
<path d="M3124 2694 c-5 -28 -10 -34 -23 -28 -24 11 -59 8 -76 -6 -24 -20 -36
-80 -22 -109 11 -23 19 -26 62 -26 l50 0 17 90 c20 108 21 115 8 115 -5 0 -12
-16 -16 -36z m-26 -46 c20 -20 14 -65 -12 -95 -20 -23 -28 -26 -43 -17 -10 6
-19 26 -21 43 -6 58 43 102 76 69z"/>
<path d="M3342 2628 c-11 -57 -18 -105 -16 -107 9 -10 18 13 35 91 21 93 23
118 10 118 -4 0 -17 -46 -29 -102z"/>
<path d="M5092 2628 c-11 -57 -18 -105 -16 -107 9 -10 18 13 35 91 21 93 23
118 10 118 -4 0 -17 -46 -29 -102z"/>
<path d="M5180 2720 c0 -5 5 -10 10 -10 6 0 10 5 10 10 0 6 -4 10 -10 10 -5 0
-10 -4 -10 -10z"/>
<path d="M5937 2709 c-31 -23 -52 -86 -43 -123 11 -43 44 -66 96 -66 25 0 51
-5 58 -12 6 -6 15 -8 19 -4 4 4 1 11 -6 16 -14 8 -13 14 14 60 23 40 19 97
-10 125 -31 32 -91 34 -128 4z m113 -19 c24 -24 26 -60 5 -100 -17 -32 -22
-35 -45 -21 -20 13 -33 2 -19 -16 11 -13 9 -14 -16 -11 -16 2 -36 14 -48 30
-18 24 -19 32 -8 67 20 67 88 94 131 51z"/>
<path d="M6320 2720 c0 -5 5 -10 10 -10 6 0 10 5 10 10 0 6 -4 10 -10 10 -5 0
-10 -4 -10 -10z"/>
<path d="M6620 2720 c0 -5 5 -10 10 -10 6 0 10 5 10 10 0 6 -4 10 -10 10 -5 0
-10 -4 -10 -10z"/>
<path d="M8566 2718 c-3 -7 -7 -26 -11 -42 -5 -22 -9 -26 -18 -17 -17 17 -62
13 -81 -8 -26 -29 -32 -93 -11 -114 19 -19 60 -23 71 -6 4 8 9 7 15 -2 4 -7
10 -11 12 -9 10 11 43 210 35 210 -5 0 -10 -6 -12 -12z m-26 -78 c26 -49 -36
-132 -75 -100 -18 15 -20 53 -4 83 23 42 61 50 79 17z"/>
<path d="M8635 2720 c-3 -5 -2 -10 4 -10 5 0 13 5 16 10 3 6 2 10 -4 10 -5 0
-13 -4 -16 -10z"/>
<path d="M9415 2718 c-7 -23 -35 -170 -35 -186 0 -8 3 -12 8 -8 11 12 49 206
40 206 -5 0 -10 -6 -13 -12z"/>
<path d="M9670 2720 c0 -5 5 -10 10 -10 6 0 10 5 10 10 0 6 -4 10 -10 10 -5 0
-10 -4 -10 -10z"/>
<path d="M10870 2720 c0 -5 5 -10 10 -10 6 0 10 5 10 10 0 6 -4 10 -10 10 -5
0 -10 -4 -10 -10z"/>
<path d="M11022 2677 c-6 -29 -12 -64 -12 -78 0 -27 -32 -69 -53 -69 -37 0
-50 67 -21 109 13 18 23 22 46 17 18 -3 27 -2 23 4 -3 6 -19 10 -35 10 -41 0
-72 -42 -68 -93 4 -50 25 -66 68 -50 16 6 30 7 30 2 0 -5 3 -9 8 -9 4 0 15 44
25 98 20 110 20 112 9 112 -4 0 -13 -24 -20 -53z"/>
<path d="M11426 2648 c-10 -46 -20 -93 -23 -105 -3 -13 -1 -23 5 -23 6 0 13
17 17 38 9 57 18 66 57 58 28 -5 38 -14 56 -51 12 -25 26 -45 31 -45 13 0 -6
55 -25 71 -20 17 -17 26 11 33 37 10 52 48 31 81 -15 22 -23 25 -80 25 l-63 0
-17 -82z m149 41 c11 -34 -17 -53 -77 -54 l-53 0 4 30 c5 43 7 45 66 45 46 0
55 -3 60 -21z"/>
<path d="M11650 2720 c0 -5 5 -10 10 -10 6 0 10 5 10 10 0 6 -4 10 -10 10 -5
0 -10 -4 -10 -10z"/>
<path d="M9488 2714 c-5 -4 -8 -16 -8 -26 0 -10 -3 -18 -7 -18 -7 0 -10 -23
-16 -115 -2 -23 3 -30 18 -32 11 -1 14 0 8 3 -16 7 -16 19 -2 84 8 36 15 50
27 50 11 0 13 3 6 8 -7 4 -14 18 -15 30 -2 13 -7 20 -11 16z"/>
<path d="M1849 2661 c-13 -11 -21 -23 -17 -27 5 -4 16 0 26 9 23 21 46 22 62
2 17 -21 4 -35 -33 -35 -59 0 -99 -49 -64 -78 14 -12 119 -13 112 -1 -3 4 0
31 7 59 11 50 11 53 -11 71 -30 24 -53 24 -82 0z m71 -76 c0 -19 -35 -55 -54
-55 -7 0 -19 7 -26 15 -16 20 1 42 38 48 15 2 30 5 35 6 4 0 7 -6 7 -14z"/>
<path d="M2190 2667 c-48 -24 -66 -99 -32 -130 40 -36 102 -15 123 40 14 37
11 52 -16 78 -27 28 -39 30 -75 12z m58 -19 c19 -19 14 -70 -10 -95 -27 -29
-44 -29 -63 1 -33 50 33 134 73 94z"/>
<path d="M2381 2671 c-7 -5 -21 -7 -30 -4 -14 4 -19 -7 -29 -60 -14 -76 -15
-87 -4 -87 5 0 14 24 21 54 12 54 38 89 61 84 7 -2 15 3 17 10 5 14 -15 16
-36 3z"/>
<path d="M2439 2651 c-52 -52 -33 -131 31 -131 29 0 80 33 68 45 -4 4 -19 -2
-34 -14 -32 -25 -38 -26 -58 -5 -32 32 -20 44 44 44 60 0 60 0 60 29 0 32 -30
61 -63 61 -10 0 -32 -13 -48 -29z m79 -3 c25 -25 13 -38 -33 -38 -50 0 -57 11
-23 34 27 19 40 20 56 4z"/>
<path d="M2714 2670 c-31 -12 -54 -49 -54 -87 0 -39 22 -63 60 -63 29 0 80 33
68 45 -4 4 -19 -2 -34 -14 -32 -25 -38 -26 -58 -5 -32 32 -20 44 44 44 57 0
60 1 60 25 0 27 -32 65 -52 64 -7 0 -23 -4 -34 -9z m54 -22 c25 -25 13 -38
-33 -38 -49 0 -53 4 -28 32 19 21 44 23 61 6z"/>
<path d="M3210 2667 c-46 -23 -66 -100 -34 -131 25 -26 79 -20 103 10 24 30
28 96 9 112 -24 18 -53 22 -78 9z m58 -19 c18 -18 14 -62 -9 -92 -23 -30 -41
-33 -63 -10 -22 21 -20 56 5 88 22 28 48 33 67 14z"/>
<path d="M3449 2669 c-46 -17 -70 -97 -39 -133 14 -18 62 -21 90 -6 17 9 40
58 40 87 0 15 -44 63 -57 62 -4 0 -20 -5 -34 -10z m55 -25 c20 -19 20 -37 1
-74 -17 -33 -50 -47 -70 -30 -22 18 -19 76 5 100 24 24 43 25 64 4z"/>
<path d="M3621 2663 c-14 -9 -21 -11 -17 -5 4 7 1 12 -7 12 -9 0 -18 -22 -25
-64 -14 -77 -15 -86 -3 -86 6 0 13 20 17 45 7 48 36 95 60 95 8 0 14 5 14 10
0 14 -12 12 -39 -7z"/>
<path d="M3710 2667 c-46 -23 -66 -100 -34 -131 8 -9 28 -16 44 -16 29 0 80
33 68 45 -4 4 -19 -2 -34 -14 -32 -25 -38 -26 -58 -5 -32 32 -20 44 44 44 56
0 60 2 60 23 0 48 -46 76 -90 54z m58 -19 c25 -25 13 -38 -33 -38 -49 0 -53 4
-28 32 19 21 44 23 61 6z"/>
<path d="M3996 2673 c-4 -4 -19 -7 -34 -8 -24 0 -28 -5 -38 -50 -15 -63 -17
-95 -5 -95 6 0 13 21 17 46 8 55 43 101 68 91 13 -5 16 -14 13 -30 -15 -57
-19 -107 -9 -107 5 0 13 17 16 38 10 58 26 91 48 98 31 10 40 -8 29 -57 -13
-54 -14 -79 -3 -79 9 0 32 88 32 120 0 28 -31 41 -61 26 -19 -10 -28 -10 -45
1 -11 7 -24 10 -28 6z"/>
<path d="M4214 2670 c-24 -10 -39 -28 -30 -37 3 -4 14 1 24 10 23 21 46 22 62
2 17 -21 4 -35 -33 -35 -59 0 -99 -49 -64 -79 8 -6 34 -10 59 -9 l46 2 12 60
c9 47 9 61 -2 71 -19 19 -50 25 -74 15z m56 -85 c0 -19 -35 -55 -54 -55 -19 0
-39 27 -33 44 3 8 21 16 39 19 18 2 36 5 41 5 4 1 7 -5 7 -13z"/>
<path d="M4359 2651 c-53 -54 -31 -140 33 -127 32 6 38 -12 12 -38 -20 -20
-38 -20 -59 0 -20 20 -33 11 -15 -11 20 -24 77 -19 95 8 18 28 50 176 40 185
-4 4 -10 1 -12 -5 -4 -10 -10 -9 -26 2 -29 20 -34 19 -68 -14z m69 -3 c33 -33
-1 -111 -46 -106 -23 3 -27 8 -30 40 -5 56 44 98 76 66z"/>
<path d="M4567 2665 c-19 -10 -27 -10 -30 -2 -2 7 -7 9 -10 6 -9 -7 -37 -143
-31 -149 8 -8 23 23 30 63 7 44 37 80 62 75 19 -4 21 -37 9 -100 -5 -22 -4
-38 1 -38 11 0 32 76 32 114 0 34 -29 49 -63 31z"/>
<path d="M4714 2670 c-24 -10 -39 -28 -30 -37 3 -4 15 2 25 11 26 23 66 18 66
-9 0 -16 -9 -21 -42 -26 -47 -6 -73 -23 -73 -49 0 -28 23 -40 77 -37 l51 2 6
64 c4 35 3 68 -1 72 -14 13 -57 18 -79 9z m56 -85 c0 -19 -35 -55 -54 -55 -7
0 -19 7 -26 15 -16 20 1 42 38 48 15 2 30 5 35 6 4 0 7 -6 7 -14z"/>
<path d="M4964 2670 c-24 -10 -39 -28 -30 -37 3 -4 15 2 25 11 26 23 66 18 66
-9 0 -16 -9 -21 -42 -26 -47 -6 -73 -23 -73 -49 0 -28 23 -40 77 -37 l51 2 6
64 c4 35 3 68 -1 72 -14 13 -57 18 -79 9z m56 -85 c0 -19 -35 -55 -54 -55 -7
0 -19 7 -26 15 -16 20 1 42 38 48 15 2 30 5 35 6 4 0 7 -6 7 -14z"/>
<path d="M5263 2670 c-25 -10 -53 -58 -53 -93 0 -40 22 -60 59 -55 33 5 33 4
28 -29 -6 -34 8 -47 17 -15 18 62 38 183 31 189 -4 5 -10 2 -12 -4 -3 -10 -10
-9 -26 1 -15 9 -29 11 -44 6z m45 -22 c18 -18 14 -62 -9 -92 -24 -30 -32 -32
-54 -9 -20 19 -14 67 12 95 19 21 34 23 51 6z"/>
<path d="M5595 2668 c-22 -13 -36 -30 -30 -37 3 -2 14 4 24 13 26 24 65 17 69
-11 3 -20 -1 -23 -31 -23 -46 0 -65 -8 -78 -31 -6 -13 -6 -25 1 -39 9 -17 20
-20 65 -18 l54 2 7 64 c3 35 3 67 -2 72 -16 16 -59 20 -79 8z m55 -88 c0 -24
-44 -55 -66 -46 -9 3 -14 15 -12 28 3 21 17 28 71 37 4 0 7 -8 7 -19z"/>
<path d="M6379 2661 c-29 -24 -19 -48 29 -70 18 -8 32 -22 32 -32 0 -33 -62
-35 -74 -3 -6 16 -26 19 -26 5 0 -41 88 -56 114 -20 20 29 11 46 -36 70 -32
17 -37 23 -28 35 16 19 47 18 58 -2 5 -9 15 -15 21 -13 18 6 -9 37 -40 44 -17
4 -33 0 -50 -14z"/>
<path d="M6719 2669 c-8 -5 -22 -6 -31 -3 -13 4 -19 -6 -28 -53 -6 -32 -16
-74 -21 -93 -12 -45 -11 -60 1 -60 5 0 13 18 16 40 6 39 17 50 29 30 10 -16
51 -11 68 8 27 29 39 75 28 104 -10 27 -41 41 -62 27z m39 -56 c2 -32 -2 -47
-17 -62 -23 -23 -30 -25 -50 -12 -36 23 0 125 42 119 18 -2 23 -11 25 -45z"/>
<path d="M6852 2664 c-34 -23 -28 -52 13 -70 40 -16 55 -41 34 -55 -22 -14
-37 -11 -60 12 -23 23 -39 17 -23 -9 13 -21 79 -28 100 -11 27 23 17 57 -23
77 -21 9 -38 24 -38 32 0 21 39 24 58 6 20 -20 27 -20 27 -1 0 9 -12 20 -26
25 -33 13 -36 13 -62 -6z"/>
<path d="M1431 2633 c-19 -79 -20 -87 -9 -100 12 -15 54 -17 63 -3 3 6 11 10
16 10 6 0 7 -4 4 -10 -3 -5 0 -10 8 -10 9 0 18 22 25 64 14 77 15 86 3 86 -6
0 -13 -21 -17 -47 -7 -48 -44 -98 -67 -90 -13 4 -15 54 -5 105 10 45 -9 41
-21 -5z"/>
<path d="M5160 2613 c-6 -32 -14 -66 -16 -75 -3 -10 -1 -18 5 -18 10 0 24 42
37 113 11 62 -13 43 -26 -20z"/>
<path d="M5407 2663 c-11 -20 -28 -115 -23 -128 7 -18 57 -20 74 -3 9 9 12 9
12 0 0 -27 20 -9 29 26 19 73 24 112 13 112 -6 0 -14 -17 -18 -37 -14 -76 -52
-119 -80 -91 -10 10 -10 24 1 71 7 31 9 57 5 57 -5 0 -11 -3 -13 -7z"/>
<path d="M6131 2626 c-23 -92 -8 -121 50 -99 16 7 29 7 29 2 0 -5 4 -9 9 -9 4
0 15 34 23 75 17 86 2 101 -19 19 -12 -48 -45 -88 -67 -81 -13 4 -14 45 -3
100 11 53 -8 47 -22 -7z"/>
<path d="M6305 2658 c-8 -24 -25 -103 -25 -120 0 -10 4 -18 9 -18 4 0 15 34
23 75 8 41 11 75 6 75 -5 0 -11 -6 -13 -12z"/>
<path d="M6605 2658 c-8 -24 -25 -103 -25 -120 0 -10 4 -18 9 -18 4 0 15 34
23 75 8 41 11 75 6 75 -5 0 -11 -6 -13 -12z"/>
<path d="M6980 2617 c-7 -29 -11 -62 -9 -72 5 -24 44 -32 65 -14 13 10 17 10
24 -1 13 -21 16 -13 33 68 17 83 1 97 -19 17 -15 -56 -44 -91 -69 -81 -17 6
-17 40 2 114 3 12 1 22 -5 22 -6 0 -16 -24 -22 -53z"/>
<path d="M7154 2655 c-7 -21 -24 -101 -24 -117 0 -37 19 -16 26 28 8 55 43
101 68 91 13 -5 16 -14 13 -30 -15 -57 -19 -107 -9 -107 5 0 13 17 16 38 10
58 26 91 48 98 33 10 42 -9 29 -60 -13 -54 -14 -76 -2 -76 11 0 35 125 26 139
-8 14 -62 14 -70 1 -5 -8 -11 -8 -19 -1 -15 13 -97 10 -102 -4z"/>
<path d="M7490 2655 c-18 -21 -3 -52 31 -64 34 -12 49 -39 28 -52 -22 -14 -37
-11 -59 11 -24 24 -30 25 -30 5 0 -31 83 -48 108 -23 23 23 13 52 -26 73 -20
11 -37 27 -37 35 0 22 46 25 62 4 7 -10 16 -15 19 -11 4 4 1 13 -6 22 -16 19
-74 20 -90 0z"/>
<path d="M7630 2615 c-6 -30 -10 -63 -8 -73 4 -21 44 -28 64 -11 13 10 17 10
24 -1 12 -20 15 -15 32 68 11 51 12 72 4 69 -6 -2 -15 -24 -19 -49 -10 -52
-46 -94 -73 -84 -16 6 -16 40 3 114 3 12 1 22 -5 22 -6 0 -16 -25 -22 -55z"/>
<path d="M7807 2663 c-4 -3 -7 -17 -7 -29 0 -17 11 -29 40 -44 43 -22 47 -29
28 -48 -19 -19 -45 -14 -62 10 -18 25 -36 16 -20 -10 13 -21 65 -27 94 -12 32
17 22 51 -23 75 -22 12 -36 26 -35 35 4 21 42 24 62 4 20 -20 34 -11 16 11
-12 15 -80 21 -93 8z"/>
<path d="M7954 2655 c-16 -54 -40 -195 -33 -195 10 0 14 8 23 52 6 24 9 26 25
17 57 -36 126 56 90 122 -8 16 -19 19 -56 17 -25 -2 -47 -7 -49 -13z m84 -7
c25 -25 5 -102 -30 -114 -27 -8 -48 13 -48 50 0 58 46 96 78 64z"/>
<path d="M8121 2644 c-25 -32 -27 -86 -5 -108 21 -22 67 -20 87 2 27 29 20 35
-13 10 -35 -25 -63 -17 -68 21 -3 19 1 21 57 21 52 0 61 3 61 18 0 61 -80 85
-119 36z m87 4 c25 -25 13 -38 -33 -38 -33 0 -45 4 -45 15 0 29 56 45 78 23z"/>
<path d="M8276 2601 c-19 -81 -19 -81 -8 -81 5 0 14 24 21 54 13 58 39 90 68
84 20 -4 22 -25 9 -95 -5 -27 -4 -43 2 -43 12 0 37 125 27 139 -9 15 -58 14
-73 -1 -9 -9 -12 -9 -12 0 0 7 -4 12 -9 12 -5 0 -17 -31 -25 -69z"/>
<path d="M8611 2599 c-7 -38 -10 -73 -7 -76 7 -7 12 7 25 75 13 64 13 72 3 72
-5 0 -14 -32 -21 -71z"/>
<path d="M8690 2650 c-14 -25 -7 -36 33 -56 39 -21 49 -34 35 -51 -15 -19 -45
-16 -68 7 -22 22 -30 25 -30 11 0 -20 33 -41 64 -41 66 0 79 59 19 88 -21 9
-38 24 -38 32 0 22 46 25 62 4 15 -20 28 -13 20 11 -10 24 -83 20 -97 -5z"/>
<path d="M8840 2650 c-14 -25 -7 -36 33 -56 39 -21 49 -34 35 -51 -15 -19 -45
-16 -68 7 -22 22 -30 25 -30 11 0 -20 33 -41 64 -41 66 0 79 59 19 88 -21 9
-38 24 -38 32 0 22 46 25 62 4 15 -20 28 -13 20 11 -10 24 -83 20 -97 -5z"/>
<path d="M8991 2644 c-23 -30 -28 -93 -9 -112 19 -19 73 -14 93 8 25 27 12 37
-14 11 -12 -12 -27 -21 -35 -21 -14 0 -46 36 -46 52 0 5 27 8 60 8 59 0 60 0
60 28 0 37 -17 52 -56 52 -23 0 -39 -8 -53 -26z m89 -5 c15 -28 10 -31 -44
-27 -46 3 -46 3 -31 26 20 28 61 29 75 1z"/>
<path d="M9231 2606 c-7 -36 -10 -70 -6 -75 7 -13 52 -15 59 -3 3 5 -5 8 -17
8 -24 -1 -27 15 -13 92 4 24 4 42 -1 42 -5 0 -15 -29 -22 -64z"/>
<path d="M9325 2606 c-11 -36 -19 -69 -17 -75 8 -25 20 -8 31 47 7 31 15 65
17 75 3 9 2 17 -3 17 -5 0 -17 -29 -28 -64z"/>
<path d="M9556 2660 c-6 -19 -26 -118 -26 -130 0 -6 4 -10 9 -10 5 0 11 18 15
40 9 58 26 88 55 99 14 5 19 10 11 10 -8 0 -22 -3 -30 -9 -9 -6 -17 -5 -22 3
-5 8 -8 7 -12 -3z"/>
<path d="M9655 2658 c-19 -60 -28 -158 -12 -137 10 12 32 149 25 149 -5 0 -10
-6 -13 -12z"/>
<path d="M9721 2644 c-23 -30 -28 -93 -9 -112 19 -19 65 -14 88 10 28 30 15
37 -15 8 -32 -30 -59 -18 -63 29 -6 63 52 107 84 64 7 -10 16 -15 20 -11 14
14 -19 38 -51 38 -24 0 -39 -7 -54 -26z"/>
<path d="M9871 2644 c-25 -32 -27 -86 -5 -108 21 -22 67 -20 87 2 27 29 20 35
-13 10 -35 -25 -63 -17 -68 21 -3 19 1 21 57 21 52 0 61 3 61 18 0 61 -80 85
-119 36z m87 4 c25 -25 13 -38 -33 -38 -33 0 -45 4 -45 15 0 29 56 45 78 23z"/>
<path d="M10040 2650 c-14 -25 -7 -36 33 -56 39 -21 49 -34 35 -51 -15 -19
-45 -16 -68 7 -22 22 -30 25 -30 11 0 -20 33 -41 64 -41 66 0 79 59 19 88 -21
9 -38 24 -38 32 0 22 46 25 62 4 15 -20 28 -13 20 11 -10 24 -83 20 -97 -5z"/>
<path d="M10271 2644 c-12 -15 -21 -41 -21 -59 0 -50 48 -83 78 -53 9 9 12 7
12 -9 0 -45 -59 -71 -79 -36 -5 10 -13 15 -17 11 -14 -14 19 -38 52 -38 43 0
58 22 78 124 16 76 14 105 -3 77 -6 -9 -11 -10 -15 -2 -14 21 -64 12 -85 -15z
m77 4 c20 -20 14 -67 -13 -94 -33 -33 -65 -19 -65 29 0 59 46 97 78 65z"/>
<path d="M10427 2598 c-15 -68 -15 -89 -1 -75 3 3 10 25 15 49 13 57 34 88 62
89 17 1 18 2 4 6 -10 3 -24 -1 -32 -7 -11 -9 -15 -9 -15 -1 0 6 -4 11 -8 11
-5 0 -16 -33 -25 -72z"/>
<path d="M10545 2650 c-10 -11 -13 -20 -8 -20 6 0 16 7 23 16 20 23 64 14 68
-13 3 -20 -1 -23 -27 -23 -16 0 -42 -4 -56 -10 -22 -8 -26 -15 -23 -42 2 -27
8 -34 30 -36 15 -2 36 2 47 7 14 8 21 8 24 -2 9 -25 16 1 19 68 l3 70 -41 3
c-30 2 -45 -2 -59 -18z m78 -67 c-17 -48 -59 -67 -83 -38 -20 24 15 53 67 54
17 1 21 -3 16 -16z"/>
<path d="M10696 2643 c3 -16 8 -48 12 -73 5 -29 13 -45 22 -45 7 0 31 33 53
73 21 39 34 72 28 72 -6 0 -26 -29 -43 -65 -33 -66 -47 -69 -48 -10 0 40 -10
75 -21 75 -5 0 -6 -12 -3 -27z"/>
<path d="M10855 2658 c-19 -60 -28 -158 -12 -137 10 12 32 149 25 149 -5 0
-10 -6 -13 -12z"/>
<path d="M11095 2650 c-10 -11 -13 -20 -8 -20 6 0 16 7 23 16 20 23 64 14 68
-13 3 -20 -1 -23 -27 -23 -16 0 -42 -4 -56 -10 -22 -8 -26 -15 -23 -42 2 -27
8 -34 30 -36 15 -2 36 2 47 7 14 8 21 8 24 -2 9 -25 16 1 19 68 l3 70 -41 3
c-30 2 -45 -2 -59 -18z m78 -67 c-17 -48 -59 -67 -83 -38 -20 24 15 53 67 54
17 1 21 -3 16 -16z"/>
<path d="M11628 2598 c-15 -69 -16 -89 -2 -75 5 5 33 119 34 140 0 4 -4 7 -8
7 -5 0 -16 -33 -24 -72z"/>
<path d="M11709 2654 c-17 -21 -2 -45 39 -63 40 -18 43 -48 5 -57 -20 -5 -30
-2 -44 14 -20 26 -29 28 -29 7 0 -32 86 -49 110 -20 19 23 7 49 -33 70 -22 12
-36 26 -35 35 5 22 49 25 65 4 7 -10 16 -15 19 -11 4 4 1 13 -6 22 -16 20 -74
19 -91 -1z"/>
<path d="M11850 2615 c-6 -30 -10 -63 -8 -73 4 -19 45 -29 59 -15 6 6 1 9 -13
9 -20 -1 -23 4 -23 34 1 19 4 50 9 68 5 20 4 32 -2 32 -6 0 -16 -25 -22 -55z"/>
<path d="M11957 2663 c-4 -3 -7 -16 -7 -27 -1 -12 -7 -38 -14 -58 -7 -20 -10
-42 -5 -49 11 -19 14 -13 31 69 13 66 12 83 -5 65z"/>
<path d="M12027 2663 c-4 -3 -7 -17 -7 -29 0 -17 11 -29 40 -44 43 -22 47 -29
28 -48 -18 -18 -45 -14 -68 10 -15 16 -20 18 -20 7 0 -40 73 -54 104 -20 23
25 11 48 -36 72 -32 17 -37 23 -28 35 16 18 44 18 60 -1 18 -22 32 -18 20 5
-8 15 -21 20 -49 20 -21 0 -41 -3 -44 -7z"/>
<path d="M5720 2530 c0 -5 5 -10 10 -10 6 0 10 5 10 10 0 6 -4 10 -10 10 -5 0
-10 -4 -10 -10z"/>
<path d="M11240 2530 c0 -5 5 -10 10 -10 6 0 10 5 10 10 0 6 -4 10 -10 10 -5
0 -10 -4 -10 -10z"/>
<path d="M2524 2343 c-10 -49 -15 -58 -22 -47 -22 33 -74 19 -97 -27 -24 -45
-13 -97 22 -105 14 -4 34 -2 44 4 13 8 19 8 22 -1 9 -24 19 4 38 100 22 116
21 103 9 103 -5 0 -12 -12 -16 -27z m-22 -68 c20 -45 -26 -115 -66 -99 -32 12
-31 69 2 107 22 24 51 21 64 -8z"/>
<path d="M3000 2360 c0 -5 5 -10 10 -10 6 0 10 5 10 10 0 6 -4 10 -10 10 -5 0
-10 -4 -10 -10z"/>
<path d="M6746 2353 c-9 -29 -36 -163 -36 -179 0 -8 4 -14 8 -14 5 0 16 37 26
83 10 45 20 92 23 105 6 26 -13 30 -21 5z"/>
<path d="M7845 2348 c-2 -13 -11 -54 -20 -91 -17 -78 -18 -97 -6 -97 4 0 16
39 25 88 10 48 19 95 22 105 3 9 1 17 -5 17 -6 0 -13 -10 -16 -22z"/>
<path d="M8007 2363 c-4 -3 -7 -15 -7 -25 0 -10 -7 -21 -16 -25 -10 -4 -12 -8
-5 -13 8 -5 7 -24 -3 -70 -15 -63 -13 -88 4 -61 4 8 11 34 15 59 9 60 14 72
34 73 10 0 11 2 4 6 -21 8 -15 43 7 43 11 0 20 5 20 10 0 11 -43 14 -53 3z"/>
<path d="M8400 2360 c0 -5 5 -10 10 -10 6 0 10 5 10 10 0 6 -4 10 -10 10 -5 0
-10 -4 -10 -10z"/>
<path d="M8469 2368 c-13 -38 -42 -207 -35 -205 12 4 56 207 44 207 -4 0 -8
-1 -9 -2z"/>
<path d="M8530 2360 c0 -5 5 -10 10 -10 6 0 10 5 10 10 0 6 -4 10 -10 10 -5 0
-10 -4 -10 -10z"/>
<path d="M8750 2360 c0 -5 5 -10 10 -10 6 0 10 5 10 10 0 6 -4 10 -10 10 -5 0
-10 -4 -10 -10z"/>
<path d="M1460 2307 c-43 -22 -63 -85 -40 -128 15 -26 71 -26 95 1 27 29 9 38
-20 10 -21 -19 -30 -22 -43 -14 -45 28 -14 124 40 124 11 0 22 -8 25 -20 5
-18 23 -19 23 -2 -1 30 -46 46 -80 29z"/>
<path d="M1610 2307 c-46 -23 -66 -100 -34 -131 25 -26 79 -20 103 10 24 30
28 96 9 112 -24 18 -53 22 -78 9z m58 -19 c18 -18 14 -62 -9 -92 -23 -30 -41
-33 -63 -10 -22 21 -20 56 5 88 22 28 48 33 67 14z"/>
<path d="M1803 2309 c-30 -11 -29 -21 1 -13 33 8 36 -3 21 -74 -10 -50 -10
-62 0 -62 8 0 16 20 20 51 7 52 32 89 59 89 24 0 25 -12 11 -78 -9 -47 -10
-62 -1 -62 7 0 18 29 26 67 12 61 11 67 -6 80 -22 16 -26 16 -49 -1 -16 -11
-23 -11 -40 -1 -13 9 -28 10 -42 4z"/>
<path d="M2043 2305 c-16 -11 -22 -12 -26 -2 -2 6 -7 9 -10 6 -9 -7 -37 -143
-31 -149 8 -8 22 21 28 62 7 41 36 78 62 78 14 0 16 -8 10 -54 -3 -30 -9 -61
-12 -70 -3 -9 -1 -16 4 -16 11 0 13 5 32 78 11 42 50 76 67 58 4 -3 2 -34 -4
-69 -10 -61 -9 -77 3 -64 11 10 33 118 28 132 -9 22 -35 26 -61 10 -21 -14
-25 -14 -39 0 -19 19 -24 19 -51 0z"/>
<path d="M2279 2309 c-46 -17 -70 -97 -39 -133 14 -18 62 -21 90 -6 17 9 40
58 40 87 0 15 -44 63 -57 62 -4 0 -20 -5 -34 -10z m55 -25 c20 -19 20 -37 1
-74 -17 -33 -50 -47 -70 -30 -22 18 -19 76 5 100 24 24 43 25 64 4z"/>
<path d="M2610 2307 c-46 -23 -66 -100 -34 -131 25 -26 79 -20 103 10 24 30
28 96 9 112 -24 18 -53 22 -78 9z m58 -19 c18 -18 14 -62 -9 -92 -23 -30 -41
-33 -63 -10 -22 21 -20 56 5 88 22 28 48 33 67 14z"/>
<path d="M3234 2310 c-46 -18 -68 -85 -44 -131 18 -33 110 -20 110 16 0 8 -4
15 -10 15 -5 0 -10 -5 -10 -10 0 -6 -11 -15 -25 -22 -29 -13 -55 3 -55 33 0
17 8 19 61 19 l62 0 -7 32 c-3 18 -10 35 -14 39 -14 13 -47 17 -68 9z m56 -29
c15 -30 14 -31 -35 -31 -48 0 -55 9 -29 34 21 22 51 20 64 -3z"/>
<path d="M3420 2310 c-8 -5 -23 -7 -32 -4 -13 4 -19 -2 -24 -23 -3 -15 -10
-44 -15 -63 -12 -45 -11 -60 1 -60 5 0 13 18 16 39 9 53 38 99 66 103 13 2 18
6 13 10 -6 4 -17 3 -25 -2z"/>
<path d="M3520 2310 c-8 -5 -23 -7 -32 -4 -13 4 -19 -2 -24 -23 -3 -15 -10
-44 -15 -63 -12 -45 -11 -60 1 -60 5 0 13 18 16 39 9 53 38 99 66 103 13 2 18
6 13 10 -6 4 -17 3 -25 -2z"/>
<path d="M3594 2310 c-24 -10 -39 -28 -30 -37 3 -4 15 2 25 11 26 23 66 18 66
-9 0 -16 -9 -21 -42 -26 -47 -6 -73 -23 -73 -49 0 -28 23 -40 77 -37 l51 2 6
64 c4 35 3 68 -1 72 -14 13 -57 18 -79 9z m56 -85 c0 -19 -35 -55 -54 -55 -7
0 -19 7 -26 15 -16 20 1 42 38 48 15 2 30 5 35 6 4 0 7 -6 7 -14z"/>
<path d="M3863 2305 c-16 -11 -22 -12 -26 -2 -7 21 -18 2 -32 -60 -17 -70 -18
-83 -6 -83 5 0 15 24 21 54 12 58 39 92 66 82 16 -6 16 -10 -3 -108 -3 -17 -1
-28 5 -28 6 0 16 24 22 54 12 58 39 92 66 82 16 -6 16 -10 -3 -108 -9 -46 14
-31 26 16 24 96 8 130 -47 102 -23 -12 -29 -12 -40 0 -16 18 -23 18 -49 -1z"/>
<path d="M4094 2310 c-24 -10 -39 -28 -30 -37 3 -4 15 2 25 11 26 23 66 18 66
-9 0 -16 -9 -21 -42 -26 -47 -6 -73 -23 -73 -49 0 -28 23 -40 77 -37 l51 2 6
64 c4 35 3 68 -1 72 -14 13 -57 18 -79 9z m56 -85 c0 -19 -35 -55 -54 -55 -7
0 -19 7 -26 15 -16 20 1 42 38 48 15 2 30 5 35 6 4 0 7 -6 7 -14z"/>
<path d="M4260 2307 c-46 -23 -66 -100 -34 -131 8 -9 28 -16 44 -16 29 0 80
33 68 45 -4 4 -19 -2 -34 -14 -32 -25 -38 -26 -58 -5 -32 32 -20 44 44 44 56
0 60 2 60 23 0 48 -46 76 -90 54z m58 -19 c25 -25 13 -38 -33 -38 -49 0 -53 4
-28 32 19 21 44 23 61 6z"/>
<path d="M4434 2310 c-12 -5 -29 -19 -38 -32 -19 -26 -21 -89 -4 -106 19 -19
66 -14 89 9 29 29 16 35 -20 8 -25 -18 -33 -20 -46 -9 -22 18 -19 76 5 100 26
26 45 25 63 -1 11 -15 17 -17 23 -8 4 7 -2 19 -16 31 -25 20 -26 20 -56 8z"/>
<path d="M4584 2310 c-46 -18 -68 -85 -44 -131 18 -33 110 -20 110 16 0 8 -4
15 -10 15 -5 0 -10 -5 -10 -10 0 -6 -11 -15 -25 -22 -29 -13 -55 3 -55 33 0
17 8 19 61 19 l62 0 -7 32 c-3 18 -10 35 -14 39 -14 13 -47 17 -68 9z m56 -29
c15 -30 14 -31 -35 -31 -48 0 -55 9 -29 34 21 22 51 20 64 -3z"/>
<path d="M4767 2305 c-19 -10 -27 -10 -30 -2 -2 7 -7 9 -10 6 -9 -7 -37 -143
-31 -149 8 -8 23 23 30 63 7 44 37 80 62 75 19 -4 21 -37 9 -100 -5 -22 -4
-38 1 -38 11 0 32 76 32 114 0 34 -29 49 -63 31z"/>
<path d="M4914 2310 c-24 -10 -39 -28 -30 -37 3 -4 14 1 24 10 23 21 46 22 62
2 17 -21 4 -35 -33 -35 -59 0 -99 -49 -64 -78 14 -12 119 -13 111 -1 -2 4 1
31 7 59 9 42 8 55 -2 65 -20 19 -51 25 -75 15z m56 -85 c0 -19 -35 -55 -54
-55 -19 0 -39 27 -33 44 3 8 21 16 39 19 18 2 36 5 41 5 4 1 7 -5 7 -13z"/>
<path d="M5080 2313 c-22 -8 -39 -33 -33 -49 3 -8 23 -24 44 -35 46 -23 49
-35 13 -51 -23 -11 -29 -10 -44 10 -19 22 -40 29 -40 13 0 -37 84 -55 115 -25
24 24 15 46 -28 69 -39 21 -46 47 -14 53 10 2 27 -4 38 -14 22 -20 40 -10 18
10 -18 17 -49 26 -69 19z"/>
<path d="M5314 2310 c-24 -10 -39 -28 -30 -37 3 -4 14 1 24 10 23 21 46 22 62
2 17 -21 4 -35 -33 -35 -59 0 -99 -49 -64 -78 14 -12 119 -13 111 -1 -2 4 1
31 7 60 11 50 10 54 -11 71 -24 20 -34 21 -66 8z m56 -85 c0 -19 -35 -55 -54
-55 -7 0 -19 7 -26 15 -16 20 1 42 38 48 15 2 30 5 35 6 4 0 7 -6 7 -14z"/>
<path d="M5459 2291 c-22 -22 -29 -39 -29 -68 0 -22 5 -44 12 -51 19 -19 66
-14 89 9 29 29 16 35 -20 8 -25 -18 -33 -20 -46 -9 -30 25 -12 103 26 115 17
6 27 2 40 -14 12 -15 20 -18 25 -10 8 14 -30 49 -53 49 -8 0 -28 -13 -44 -29z"/>
<path d="M5609 2291 c-22 -22 -29 -39 -29 -68 0 -22 5 -44 12 -51 19 -19 66
-14 89 9 29 29 16 35 -20 8 -25 -18 -33 -20 -46 -9 -30 25 -12 103 26 115 17
6 27 2 40 -14 12 -15 20 -18 25 -10 8 14 -30 49 -53 49 -8 0 -28 -13 -44 -29z"/>
<path d="M5962 2304 c-12 -8 -22 -10 -22 -5 0 6 -4 11 -9 11 -9 0 -44 -140
-37 -148 11 -11 24 12 31 54 7 48 33 84 61 84 14 0 16 -7 11 -45 -4 -25 -10
-57 -13 -71 -5 -20 -3 -25 6 -22 8 2 19 28 26 58 12 53 33 80 62 80 12 0 13
-10 9 -45 -4 -25 -10 -57 -13 -71 -5 -20 -3 -25 6 -22 8 2 19 29 26 59 17 73
17 77 -7 89 -16 9 -26 8 -45 -5 -22 -14 -26 -14 -40 0 -19 19 -24 19 -52 -1z"/>
<path d="M6179 2301 c-19 -16 -22 -23 -13 -38 6 -10 23 -24 38 -31 33 -16 44
-41 25 -53 -22 -14 -38 -11 -56 11 -21 24 -33 26 -33 5 0 -35 85 -48 114 -16
23 25 11 48 -36 72 -32 17 -37 23 -28 35 16 19 47 18 58 -2 5 -9 15 -15 21
-13 18 6 -9 37 -40 44 -17 4 -33 0 -50 -14z"/>
<path d="M6345 2308 c-22 -13 -36 -30 -30 -37 3 -2 14 4 24 13 26 24 65 17 69
-11 3 -20 -1 -23 -31 -23 -46 0 -65 -8 -78 -31 -6 -13 -6 -25 1 -39 9 -17 20
-20 65 -18 l54 2 7 64 c3 35 3 67 -2 72 -16 16 -59 20 -79 8z m55 -88 c0 -24
-41 -53 -64 -44 -10 4 -16 15 -14 28 3 19 19 27 71 35 4 0 7 -8 7 -19z"/>
<path d="M6532 2304 c-12 -8 -22 -10 -22 -5 0 6 -4 11 -10 11 -9 0 -23 -43
-36 -112 -10 -61 11 -44 29 22 13 46 23 63 42 72 40 18 49 1 34 -66 -7 -31 -9
-59 -6 -63 11 -10 14 -2 28 66 13 59 12 64 -6 77 -24 18 -26 17 -53 -2z"/>
<path d="M6814 2296 c-16 -14 -23 -26 -16 -26 7 0 20 7 29 16 22 22 57 14 61
-13 3 -21 -1 -23 -35 -23 -52 0 -76 -18 -71 -55 3 -29 5 -30 59 -31 l56 -1 11
61 c13 67 8 80 -39 91 -20 5 -33 0 -55 -19z m76 -66 c0 -13 -45 -60 -57 -60
-19 1 -35 19 -31 36 2 13 15 21 38 25 19 4 38 7 43 8 4 0 7 -4 7 -9z"/>
<path d="M6990 2307 c-16 -8 -30 -28 -39 -55 -11 -37 -11 -45 3 -67 21 -32 67
-34 96 -3 15 16 17 24 8 27 -6 2 -14 -1 -16 -8 -2 -6 -13 -16 -24 -22 -27 -14
-48 5 -48 45 0 63 56 101 81 55 8 -16 14 -18 22 -9 9 9 6 16 -12 31 -27 22
-37 23 -71 6z"/>
<path d="M7302 2304 c-34 -23 -28 -52 13 -70 40 -16 55 -41 34 -55 -22 -14
-37 -11 -60 12 -23 23 -39 17 -23 -9 13 -21 79 -28 100 -11 27 23 17 57 -23
77 -21 9 -38 24 -38 32 0 21 39 24 58 6 20 -20 27 -20 27 -1 0 9 -12 20 -26
25 -33 13 -36 13 -62 -6z"/>
<path d="M7699 2309 c-46 -17 -70 -97 -39 -133 18 -23 73 -20 95 4 25 27 12
37 -14 11 -12 -12 -27 -21 -34 -21 -18 0 -37 21 -37 42 0 14 11 18 58 20 54 3
57 4 54 28 -1 14 -12 33 -23 43 -24 19 -24 19 -60 6z m45 -15 c9 -3 16 -15 16
-25 0 -16 -8 -19 -45 -19 -42 0 -45 2 -35 19 14 27 36 36 64 25z"/>
<path d="M1738 2235 c-11 -52 -12 -75 -4 -72 6 2 16 24 21 48 6 24 13 49 18
56 8 12 -1 43 -13 43 -4 0 -14 -34 -22 -75z"/>
<path d="M2823 2288 c3 -13 9 -47 13 -75 11 -88 39 -67 112 90 2 4 -1 7 -7 7
-5 0 -26 -28 -45 -62 l-34 -61 -7 39 c-11 72 -15 84 -26 84 -7 0 -9 -10 -6
-22z"/>
<path d="M2985 2298 c-8 -24 -25 -103 -25 -120 0 -10 4 -18 9 -18 4 0 15 34
23 75 8 41 11 75 6 75 -5 0 -11 -6 -13 -12z"/>
<path d="M3045 2268 c16 -103 17 -109 32 -106 21 4 99 148 81 148 -8 0 -28
-28 -45 -62 -33 -67 -37 -66 -48 15 -3 26 -11 47 -16 47 -7 0 -8 -16 -4 -42z"/>
<path d="M5741 2246 c-7 -36 -10 -70 -6 -75 8 -14 62 -14 71 0 4 8 9 7 15 -2
13 -21 25 -1 38 65 13 72 14 76 1 76 -5 0 -12 -17 -16 -37 -13 -74 -50 -117
-79 -93 -10 8 -10 22 0 70 10 46 10 60 1 60 -7 0 -18 -28 -25 -64z"/>
<path d="M7110 2250 c-7 -32 -10 -66 -7 -75 7 -17 39 -20 68 -5 13 7 19 7 19
0 0 -5 4 -10 9 -10 10 0 44 140 36 149 -9 9 -22 -18 -29 -60 -7 -41 -41 -82
-66 -77 -16 4 -18 27 -5 96 12 66 -10 51 -25 -18z"/>
<path d="M7514 2258 c16 -123 30 -127 84 -23 47 90 32 101 -18 12 l-35 -62 -9
63 c-5 34 -13 62 -19 62 -6 0 -7 -20 -3 -52z"/>
<path d="M8075 2294 c-22 -23 -10 -31 14 -10 26 24 65 17 69 -11 3 -20 -1 -23
-27 -23 -16 0 -42 -4 -56 -10 -22 -8 -26 -15 -23 -42 3 -33 3 -33 60 -33 l56
-1 7 63 c4 34 4 67 0 73 -10 16 -82 12 -100 -6z m73 -76 c-2 -12 -16 -29 -31
-38 -26 -14 -29 -14 -42 4 -17 22 -12 34 19 46 39 16 58 12 54 -12z"/>
<path d="M8236 2288 c-25 -40 -30 -76 -12 -103 20 -31 65 -33 91 -5 25 27 12
37 -14 11 -27 -27 -47 -27 -61 0 -31 57 47 148 79 92 11 -21 26 -11 18 12 -10
25 -83 20 -101 -7z"/>
<path d="M8376 2241 c-19 -82 -19 -81 -7 -81 5 0 15 26 21 58 6 31 14 65 16
75 3 9 1 17 -5 17 -5 0 -17 -31 -25 -69z"/>
<path d="M8508 2238 c-15 -69 -16 -89 -2 -75 5 5 33 119 34 140 0 4 -4 7 -8 7
-5 0 -16 -33 -24 -72z"/>
<path d="M8589 2294 c-17 -21 -2 -45 39 -63 40 -18 43 -48 5 -57 -20 -5 -30
-2 -44 14 -20 26 -29 28 -29 7 0 -32 86 -49 110 -20 19 23 7 49 -33 70 -22 12
-36 26 -35 35 5 22 49 25 65 4 7 -10 16 -15 19 -11 4 4 1 13 -6 22 -16 20 -74
19 -91 -1z"/>
<path d="M8726 2241 c-19 -81 -19 -81 -8 -81 5 0 14 26 21 58 7 31 15 65 17
75 3 9 1 17 -5 17 -5 0 -17 -31 -25 -69z"/>
<path d="M8812 2298 c-23 -23 -13 -47 25 -65 47 -22 55 -50 17 -59 -22 -6 -31
-2 -46 16 -21 25 -38 19 -22 -8 13 -21 65 -27 94 -12 32 17 22 51 -23 75 -22
12 -36 26 -35 35 4 21 42 24 62 4 20 -20 34 -11 16 11 -15 18 -71 20 -88 3z"/>
<path d="M8935 2170 c-3 -5 -1 -10 4 -10 6 0 11 5 11 10 0 6 -2 10 -4 10 -3 0
-8 -4 -11 -10z"/>
<path d="M5512 1781 c-165 -9 -152 25 -152 -396 0 -390 -2 -380 80 -396 54
-10 2960 -10 3044 0 100 13 96 -4 96 398 l0 344 -23 23 c-21 21 -33 23 -197
29 -207 8 -2684 6 -2848 -2z m2188 -240 c47 -34 70 -79 70 -138 0 -108 -51
-165 -156 -171 -73 -5 -123 15 -156 61 -26 36 -35 120 -19 169 15 44 60 88
103 99 47 11 129 1 158 -20z m-1617 8 c47 -21 61 -85 26 -120 l-20 -20 25 -20
c20 -16 26 -30 26 -59 0 -77 -47 -99 -212 -100 l-88 0 0 165 0 165 110 0 c60
0 120 -5 133 -11z m197 -92 c0 -118 12 -147 60 -147 48 0 60 29 60 147 l0 103
50 0 50 0 0 -110 c0 -128 -13 -170 -62 -200 -43 -26 -138 -27 -188 -2 -56 27
-70 68 -70 200 l0 112 50 0 50 0 0 -103z m392 53 c17 -27 32 -50 34 -50 1 0
16 23 33 50 l31 50 55 0 c42 0 54 -3 49 -12 -4 -7 -30 -47 -58 -88 -48 -70
-51 -80 -56 -150 l-5 -75 -50 0 -50 0 -5 75 c-5 70 -8 80 -56 150 -28 41 -54
81 -58 88 -5 9 7 12 49 12 l56 0 31 -50z m548 -32 l55 -82 3 82 3 82 49 0 50
0 0 -166 0 -165 -47 3 c-46 3 -47 4 -107 88 l-61 85 -3 -87 -3 -88 -44 0 -45
0 0 165 0 165 48 0 47 0 55 -82z m669 20 c21 -109 23 -110 46 -23 l22 80 51 3
51 3 11 -43 c6 -24 17 -63 24 -88 l13 -44 7 39 c4 22 12 61 18 88 l10 47 49 0
c46 0 49 -1 44 -22 -3 -13 -19 -84 -35 -158 -17 -74 -34 -138 -39 -143 -5 -5
-28 -7 -52 -5 l-44 3 -27 90 c-15 50 -27 92 -28 95 -1 3 -14 -38 -29 -90 l-26
-95 -53 -3 c-28 -2 -52 0 -52 3 0 4 -16 76 -35 161 -19 84 -35 156 -35 159 0
3 22 5 49 5 l48 0 12 -62z"/>
<path d="M7559 1471 c-20 -16 -24 -28 -24 -76 0 -65 17 -85 71 -85 43 0 59 23
59 87 0 45 -4 58 -24 74 -13 10 -31 19 -41 19 -10 0 -28 -9 -41 -19z"/>
<path d="M5940 1460 c0 -27 3 -30 29 -30 34 0 63 24 55 45 -4 10 -20 15 -45
15 -37 0 -39 -2 -39 -30z"/>
<path d="M5940 1339 c0 -30 1 -30 47 -27 37 2 49 7 51 22 5 24 -14 36 -60 36
-36 0 -38 -2 -38 -31z"/>
</g>
</svg>
